<svg width="2035" height="492" viewBox="0 0 2035 492" fill="none" xmlns="http://www.w3.org/2000/svg">
<g clip-path="url(#clip0)">
<path fill-rule="evenodd" clip-rule="evenodd" d="M459.01 150.274C462.864 150.292 466.002 147.183 466.02 143.33C466.038 139.476 462.929 136.338 459.076 136.32C455.222 136.302 452.084 139.411 452.066 143.264C452.048 147.118 455.157 150.256 459.01 150.274ZM458.978 157.252C466.685 157.288 472.962 151.069 472.998 143.362C473.034 135.655 466.815 129.378 459.108 129.342C451.401 129.306 445.124 135.525 445.088 143.232C445.052 150.939 451.271 157.216 458.978 157.252Z" fill="#40D78F"/>
<path fill-rule="evenodd" clip-rule="evenodd" d="M516.502 202.307C516.593 206.159 519.79 209.209 523.642 209.118C527.495 209.027 530.544 205.83 530.453 201.978C530.362 198.125 527.166 195.076 523.313 195.167C519.461 195.258 516.411 198.454 516.502 202.307ZM509.527 202.471C509.708 210.176 516.102 216.275 523.807 216.093C531.512 215.912 537.61 209.518 537.429 201.813C537.247 194.108 530.853 188.009 523.149 188.191C515.444 188.373 509.345 194.766 509.527 202.471Z" fill="#FFE34F"/>
<path d="M375.427 258.439C372.961 258.347 370.523 259.568 369.169 261.836C367.815 264.104 367.896 266.829 369.147 268.956C370.124 270.617 370.782 272.745 369.794 274.399C368.806 276.053 366.621 276.62 365.261 275.254C360.866 270.84 359.838 263.853 363.178 258.259C366.518 252.665 373.157 250.255 379.128 252.031C380.975 252.58 381.513 254.772 380.525 256.427C379.537 258.081 377.352 258.511 375.427 258.439Z" fill="#34B0FF"/>
<path d="M665.489 202.053C665.143 199.61 663.51 197.426 661.038 196.495C658.566 195.564 655.898 196.127 654.026 197.735C652.565 198.991 650.587 200.015 648.784 199.336C646.981 198.656 646.036 196.606 647.139 195.026C650.705 189.918 657.4 187.669 663.497 189.966C669.594 192.262 673.142 198.369 672.452 204.56C672.239 206.475 670.176 207.393 668.373 206.714C666.57 206.035 665.759 203.961 665.489 202.053Z" fill="#34B0FF"/>
<path fill-rule="evenodd" clip-rule="evenodd" d="M511.892 306.977L501.362 317.308L514.746 320.549L511.892 306.977ZM508.521 300.51C511.799 297.293 517.338 298.969 518.283 303.464L521.953 320.916C522.833 325.099 519.05 328.77 514.895 327.764L497.684 323.597C493.248 322.523 491.722 316.991 494.98 313.795L508.521 300.51Z" fill="#5864FF"/>
<path fill-rule="evenodd" clip-rule="evenodd" d="M1700.1 67.6789C1697.87 66.3917 1697.11 63.5459 1698.4 61.3226L1710.79 39.9258C1712.07 37.7024 1714.92 36.9435 1717.14 38.2307C1719.37 39.5178 1720.13 42.3636 1718.84 44.587L1706.45 65.9838C1705.16 68.2071 1702.32 68.9661 1700.1 67.6789Z" fill="#FFA134"/>
<path fill-rule="evenodd" clip-rule="evenodd" d="M32.5919 317.635C33.9992 321.223 38.0482 322.99 41.6356 321.583C45.223 320.176 46.9904 316.127 45.5831 312.539C44.1758 308.952 40.1268 307.185 36.5394 308.592C32.952 309.999 31.1846 314.048 32.5919 317.635ZM26.0964 320.184C28.9109 327.358 37.0089 330.893 44.1837 328.079C51.3585 325.264 54.8932 317.166 52.0786 309.991C49.2641 302.816 41.1661 299.282 33.9913 302.096C26.8165 304.911 23.2818 313.009 26.0964 320.184Z" fill="#34B0FF"/>
<path fill-rule="evenodd" clip-rule="evenodd" d="M1554.08 56C1555.75 54.0483 1558.69 53.8203 1560.64 55.4908L1579.42 71.5675C1581.38 73.238 1581.6 76.1744 1579.93 78.1262C1578.26 80.0779 1575.33 80.3059 1573.37 78.6354L1554.59 62.5587C1552.64 60.8882 1552.41 57.9518 1554.08 56Z" fill="#5864FF"/>
<path d="M296.314 436.502C296.853 434.094 296.095 431.474 294.111 429.731C292.127 427.987 289.432 427.572 287.113 428.415C285.303 429.074 283.091 429.334 281.644 428.062C280.196 426.79 280.037 424.538 281.627 423.449C286.766 419.929 293.824 420.189 298.718 424.49C303.611 428.791 304.774 435.757 301.943 441.306C301.067 443.023 298.813 443.153 297.366 441.881C295.919 440.609 295.893 438.382 296.314 436.502Z" fill="#FFE34F"/>
<path fill-rule="evenodd" clip-rule="evenodd" d="M1168.03 318.984C1166.78 321.231 1163.95 322.042 1161.71 320.797L1140.08 308.809C1137.84 307.563 1137.02 304.732 1138.27 302.485C1139.52 300.238 1142.35 299.427 1144.59 300.672L1166.22 312.66C1168.46 313.906 1169.28 316.737 1168.03 318.984Z" fill="#FFA134"/>
<path fill-rule="evenodd" clip-rule="evenodd" d="M1343.47 197.358C1347.11 198.626 1351.09 196.703 1352.36 193.064C1353.63 189.425 1351.7 185.448 1348.06 184.18C1344.43 182.912 1340.45 184.835 1339.18 188.474C1337.91 192.113 1339.83 196.09 1343.47 197.358ZM1341.18 203.947C1348.46 206.483 1356.41 202.638 1358.95 195.36C1361.48 188.082 1357.64 180.126 1350.36 177.591C1343.08 175.055 1335.13 178.9 1332.59 186.178C1330.06 193.456 1333.9 201.412 1341.18 203.947Z" fill="#FFE34F"/>
<path fill-rule="evenodd" clip-rule="evenodd" d="M81.6813 192.617L85.662 206.821L94.949 196.653L81.6813 192.617ZM74.3897 192.455C73.1503 188.032 77.2869 183.986 81.6811 185.323L98.7429 190.514C102.832 191.759 104.226 196.842 101.344 199.999L89.4008 213.074C86.3229 216.443 80.7402 215.116 79.5087 210.721L74.3897 192.455Z" fill="#34B0FF"/>
<path fill-rule="evenodd" clip-rule="evenodd" d="M606.161 52.2221L599.035 65.1381L612.786 64.4058L606.161 52.2221ZM601.078 46.9923C603.297 42.9708 609.083 42.9887 611.277 47.0238L619.796 62.6916C621.838 66.4471 619.266 71.0481 614.997 71.2754L597.314 72.2172C592.756 72.4599 589.709 67.5977 591.913 63.6018L601.078 46.9923Z" fill="#FFA134"/>
<path fill-rule="evenodd" clip-rule="evenodd" d="M202.138 387.945L195.011 400.861L208.763 400.129L202.138 387.945ZM197.054 382.715C199.273 378.694 205.06 378.712 207.254 382.747L215.773 398.415C217.815 402.17 215.242 406.771 210.974 406.998L193.29 407.94C188.733 408.183 185.685 403.321 187.89 399.325L197.054 382.715Z" fill="#FFA134"/>
<path fill-rule="evenodd" clip-rule="evenodd" d="M1459.94 61.7432C1460.89 64.1313 1459.72 66.835 1457.34 67.7821L1434.35 76.8965C1431.97 77.8436 1429.26 76.6754 1428.31 74.2873C1427.37 71.8992 1428.54 69.1955 1430.92 68.2484L1453.91 59.134C1456.29 58.1869 1459 59.3551 1459.94 61.7432Z" fill="#34B0FF"/>
<path fill-rule="evenodd" clip-rule="evenodd" d="M1523.39 197.565C1522.56 199.995 1519.91 201.29 1517.48 200.457L1494.1 192.44C1491.67 191.607 1490.37 188.962 1491.2 186.532C1492.04 184.101 1494.68 182.807 1497.11 183.64L1520.5 191.656C1522.93 192.489 1524.23 195.134 1523.39 197.565Z" fill="#FFA134"/>
<path fill-rule="evenodd" clip-rule="evenodd" d="M1971.26 433.116C1971.16 429.263 1967.97 426.214 1964.12 426.305C1960.26 426.395 1957.21 429.592 1957.3 433.445C1957.4 437.297 1960.59 440.347 1964.44 440.256C1968.3 440.165 1971.35 436.968 1971.26 433.116ZM1978.23 432.951C1978.05 425.246 1971.66 419.147 1963.95 419.329C1956.25 419.511 1950.15 425.904 1950.33 433.609C1950.51 441.314 1956.9 447.413 1964.61 447.231C1972.31 447.049 1978.41 440.656 1978.23 432.951Z" fill="#5864FF"/>
<path fill-rule="evenodd" clip-rule="evenodd" d="M1444.6 289.344C1445.32 285.558 1442.83 281.906 1439.04 281.188C1435.26 280.47 1431.61 282.957 1430.89 286.743C1430.17 290.529 1432.66 294.18 1436.44 294.899C1440.23 295.617 1443.88 293.13 1444.6 289.344ZM1451.45 290.644C1452.89 283.072 1447.92 275.769 1440.34 274.333C1432.77 272.897 1425.47 277.871 1424.03 285.443C1422.6 293.015 1427.57 300.317 1435.14 301.754C1442.72 303.19 1450.02 298.216 1451.45 290.644Z" fill="#40D78F"/>
<path fill-rule="evenodd" clip-rule="evenodd" d="M1540.17 343.08C1537.93 341.818 1537.14 338.982 1538.4 336.744L1550.54 315.206C1551.8 312.968 1554.64 312.177 1556.88 313.439C1559.11 314.7 1559.91 317.537 1558.64 319.775L1546.5 341.312C1545.24 343.55 1542.4 344.342 1540.17 343.08Z" fill="#5864FF"/>
<path fill-rule="evenodd" clip-rule="evenodd" d="M1620.52 179.054C1624.33 179.665 1627.91 177.076 1628.52 173.271C1629.13 169.466 1626.54 165.887 1622.73 165.276C1618.93 164.665 1615.35 167.254 1614.74 171.059C1614.13 174.864 1616.72 178.443 1620.52 179.054ZM1619.42 185.943C1627.02 187.165 1634.18 181.987 1635.41 174.377C1636.63 166.768 1631.45 159.608 1623.84 158.387C1616.23 157.165 1609.07 162.343 1607.85 169.953C1606.63 177.562 1611.81 184.722 1619.42 185.943Z" fill="#FFE34F"/>
<path fill-rule="evenodd" clip-rule="evenodd" d="M1695.68 265.868L1690.22 279.573L1703.78 277.13L1695.68 265.868ZM1689.99 261.314C1691.69 257.047 1697.43 256.343 1700.11 260.072L1710.52 274.555C1713.01 278.026 1711.03 282.912 1706.83 283.67L1689.4 286.811C1684.91 287.621 1681.28 283.177 1682.97 278.937L1689.99 261.314Z" fill="#40D78F"/>
<path fill-rule="evenodd" clip-rule="evenodd" d="M1459.94 61.7432C1460.89 64.1313 1459.72 66.835 1457.34 67.7821L1434.35 76.8965C1431.97 77.8436 1429.26 76.6754 1428.31 74.2873C1427.37 71.8992 1428.54 69.1955 1430.92 68.2484L1453.91 59.134C1456.29 58.1869 1459 59.3551 1459.94 61.7432Z" fill="#34B0FF"/>
<path fill-rule="evenodd" clip-rule="evenodd" d="M1523.39 197.565C1522.56 199.995 1519.91 201.29 1517.48 200.457L1494.1 192.44C1491.67 191.607 1490.37 188.962 1491.2 186.532C1492.04 184.101 1494.68 182.807 1497.11 183.64L1520.5 191.656C1522.93 192.489 1524.23 195.134 1523.39 197.565Z" fill="#FFA134"/>
<path fill-rule="evenodd" clip-rule="evenodd" d="M1291.17 289.612C1291.88 285.825 1289.4 282.174 1285.61 281.456C1281.83 280.738 1278.17 283.225 1277.46 287.011C1276.74 290.797 1279.22 294.448 1283.01 295.166C1286.8 295.885 1290.45 293.398 1291.17 289.612ZM1298.02 290.912C1299.46 283.34 1294.48 276.037 1286.91 274.601C1279.34 273.164 1272.04 278.138 1270.6 285.71C1269.16 293.283 1274.14 300.585 1281.71 302.022C1289.28 303.458 1296.59 298.484 1298.02 290.912Z" fill="#5864FF"/>
<path fill-rule="evenodd" clip-rule="evenodd" d="M1540.17 343.08C1537.93 341.818 1537.14 338.982 1538.4 336.744L1550.54 315.206C1551.8 312.968 1554.64 312.177 1556.88 313.439C1559.11 314.7 1559.91 317.537 1558.64 319.775L1546.5 341.312C1545.24 343.55 1542.4 344.342 1540.17 343.08Z" fill="#5864FF"/>
<path fill-rule="evenodd" clip-rule="evenodd" d="M432.365 54.9291C429.918 55.7112 427.3 54.3615 426.518 51.9144L418.991 28.3642C418.209 25.9171 419.558 23.2993 422.005 22.5172C424.452 21.7351 427.07 23.0848 427.852 25.5319L435.38 49.0821C436.162 51.5292 434.812 54.147 432.365 54.9291Z" fill="#FFA134"/>
<path fill-rule="evenodd" clip-rule="evenodd" d="M311.697 46.486C315.164 44.8026 316.609 40.6278 314.926 37.1614C313.242 33.695 309.067 32.2496 305.601 33.9331C302.135 35.6165 300.689 39.7913 302.373 43.2577C304.056 46.7241 308.231 48.1695 311.697 46.486ZM314.746 52.7625C321.678 49.3956 324.569 41.0461 321.202 34.1133C317.835 27.1805 309.486 24.2897 302.553 27.6566C295.62 31.0235 292.729 39.3731 296.096 46.3059C299.463 53.2387 307.813 56.1294 314.746 52.7625Z" fill="#40D78F"/>
<path fill-rule="evenodd" clip-rule="evenodd" d="M325.62 155.238C325.296 152.689 327.1 150.361 329.649 150.037L354.176 146.925C356.724 146.601 359.053 148.405 359.376 150.954C359.699 153.502 357.896 155.831 355.347 156.154L330.82 159.267C328.271 159.59 325.943 157.786 325.62 155.238Z" fill="#5864FF"/>
<path fill-rule="evenodd" clip-rule="evenodd" d="M432.365 54.9291C429.918 55.7112 427.3 54.3615 426.518 51.9144L418.991 28.3642C418.209 25.9171 419.558 23.2993 422.005 22.5172C424.452 21.7351 427.07 23.0848 427.852 25.5319L435.38 49.0821C436.162 51.5292 434.812 54.147 432.365 54.9291Z" fill="#FFA134"/>
<path fill-rule="evenodd" clip-rule="evenodd" d="M311.697 46.486C315.164 44.8026 316.609 40.6278 314.926 37.1614C313.242 33.695 309.067 32.2496 305.601 33.9331C302.135 35.6165 300.689 39.7913 302.373 43.2577C304.056 46.7241 308.231 48.1695 311.697 46.486ZM314.746 52.7625C321.678 49.3956 324.569 41.0461 321.202 34.1133C317.835 27.1805 309.486 24.2897 302.553 27.6566C295.62 31.0235 292.729 39.3731 296.096 46.3059C299.463 53.2387 307.813 56.1294 314.746 52.7625Z" fill="#40D78F"/>
<path fill-rule="evenodd" clip-rule="evenodd" d="M325.62 155.238C325.296 152.689 327.1 150.361 329.649 150.037L354.176 146.925C356.724 146.601 359.053 148.405 359.376 150.954C359.699 153.502 357.896 155.831 355.347 156.154L330.82 159.267C328.271 159.59 325.943 157.786 325.62 155.238Z" fill="#5864FF"/>
<path fill-rule="evenodd" clip-rule="evenodd" d="M92.0883 48.2705C91.7649 45.7219 93.5688 43.3936 96.1174 43.0702L120.645 39.9576C123.193 39.6342 125.521 41.4381 125.845 43.9867C126.168 46.5353 124.364 48.8635 121.816 49.1869L97.2886 52.2995C94.74 52.6229 92.4118 50.8191 92.0883 48.2705Z" fill="#5864FF"/>
<path fill-rule="evenodd" clip-rule="evenodd" d="M1620.52 179.054C1624.33 179.665 1627.91 177.076 1628.52 173.271C1629.13 169.466 1626.54 165.887 1622.73 165.276C1618.93 164.665 1615.35 167.254 1614.74 171.059C1614.13 174.864 1616.72 178.443 1620.52 179.054ZM1619.42 185.943C1627.02 187.165 1634.18 181.987 1635.41 174.377C1636.63 166.768 1631.45 159.608 1623.84 158.387C1616.23 157.165 1609.07 162.343 1607.85 169.953C1606.63 177.562 1611.81 184.722 1619.42 185.943Z" fill="#FFE34F"/>
<path fill-rule="evenodd" clip-rule="evenodd" d="M1695.68 265.868L1690.22 279.573L1703.78 277.13L1695.68 265.868ZM1689.99 261.314C1691.69 257.047 1697.43 256.343 1700.11 260.072L1710.52 274.555C1713.01 278.026 1711.03 282.912 1706.83 283.67L1689.4 286.811C1684.91 287.621 1681.28 283.177 1682.97 278.937L1689.99 261.314Z" fill="#40D78F"/>
<path fill-rule="evenodd" clip-rule="evenodd" d="M220.735 243.27L215.101 256.903L228.683 254.634L220.735 243.27ZM215.097 238.643C216.852 234.398 222.603 233.767 225.236 237.531L235.457 252.145C237.907 255.648 235.866 260.509 231.65 261.213L214.184 264.131C209.682 264.882 206.109 260.392 207.852 256.175L215.097 238.643Z" fill="#40D78F"/>
<path fill-rule="evenodd" clip-rule="evenodd" d="M55.4671 478.157C58.658 480.318 62.9963 479.482 65.1568 476.291C67.3174 473.101 66.4821 468.762 63.2912 466.602C60.1003 464.441 55.7621 465.276 53.6015 468.467C51.441 471.658 52.2762 475.996 55.4671 478.157ZM51.5551 483.935C57.9369 488.256 66.6133 486.585 70.9345 480.203C75.2556 473.822 73.5851 465.145 67.2032 460.824C60.8214 456.503 52.145 458.173 47.8239 464.555C43.5027 470.937 45.1733 479.614 51.5551 483.935Z" fill="#40D78F"/>
<path fill-rule="evenodd" clip-rule="evenodd" d="M1917.36 55.6829C1918.31 59.4186 1922.1 61.6802 1925.84 60.7344C1929.57 59.7886 1931.84 55.9934 1930.89 52.2578C1929.94 48.5221 1926.15 46.2605 1922.41 47.2063C1918.68 48.1521 1916.42 51.9472 1917.36 55.6829ZM1910.6 57.3955C1912.49 64.8669 1920.08 69.3901 1927.55 67.4984C1935.02 65.6068 1939.55 58.0166 1937.65 50.5452C1935.76 43.0738 1928.17 38.5506 1920.7 40.4422C1913.23 42.3339 1908.71 49.9241 1910.6 57.3955Z" fill="#FFE34F"/>
<path fill-rule="evenodd" clip-rule="evenodd" d="M1789.33 308.936C1790.28 312.672 1794.07 314.933 1797.81 313.987C1801.54 313.041 1803.81 309.246 1802.86 305.511C1801.91 301.775 1798.12 299.513 1794.38 300.459C1790.65 301.405 1788.39 305.2 1789.33 308.936ZM1782.57 310.648C1784.46 318.12 1792.05 322.643 1799.52 320.751C1806.99 318.86 1811.52 311.269 1809.62 303.798C1807.73 296.327 1800.14 291.804 1792.67 293.695C1785.2 295.587 1780.68 303.177 1782.57 310.648Z" fill="#5864FF"/>
<path d="M1792.31 141.799C1789.89 142.258 1787.78 143.991 1786.97 146.503C1786.15 149.016 1786.84 151.655 1788.53 153.45C1789.85 154.852 1790.97 156.78 1790.37 158.613C1789.78 160.445 1787.77 161.484 1786.14 160.455C1780.88 157.129 1778.32 150.546 1780.33 144.349C1782.34 138.152 1788.28 134.326 1794.5 134.728C1796.42 134.852 1797.43 136.87 1796.84 138.703C1796.24 140.536 1794.21 141.441 1792.31 141.799Z" fill="#34B0FF"/>
<path fill-rule="evenodd" clip-rule="evenodd" d="M1936.16 158.755L1928.19 171.171L1941.96 171.351L1936.16 158.755ZM1931.43 153.2C1933.91 149.334 1939.69 149.736 1941.61 153.908L1949.07 170.106C1950.86 173.988 1947.99 178.409 1943.71 178.352L1926 178.12C1921.44 178.06 1918.72 173.007 1921.19 169.166L1931.43 153.2Z" fill="#5864FF"/>
<path d="M1960.25 302.895C1960.24 300.428 1958.92 298.043 1956.59 296.784C1954.27 295.525 1951.55 295.72 1949.48 297.059C1947.86 298.104 1945.76 298.849 1944.07 297.931C1942.37 297.013 1941.72 294.853 1943.02 293.438C1947.25 288.863 1954.19 287.545 1959.92 290.65C1965.65 293.754 1968.33 300.287 1966.8 306.327C1966.33 308.195 1964.16 308.824 1962.47 307.906C1960.78 306.988 1960.26 304.822 1960.25 302.895Z" fill="#FFE34F"/>
<path fill-rule="evenodd" clip-rule="evenodd" d="M1889.18 377.098L1891.46 362.523L1878.79 367.92L1889.18 377.098ZM1895.75 380.271C1895.04 384.809 1889.6 386.774 1886.16 383.734L1872.79 371.931C1869.58 369.101 1870.42 363.898 1874.36 362.222L1890.65 355.282C1894.85 353.494 1899.38 357.018 1898.67 361.528L1895.75 380.271Z" fill="#40D78F"/>
<path fill-rule="evenodd" clip-rule="evenodd" d="M880.984 42.6676C880.151 45.0978 877.506 46.3927 875.076 45.5597L851.687 37.5433C849.257 36.7103 847.962 34.0649 848.795 31.6347C849.628 29.2044 852.274 27.9096 854.704 28.7426L878.092 36.759C880.522 37.592 881.817 40.2374 880.984 42.6676Z" fill="#FFA134"/>
<path fill-rule="evenodd" clip-rule="evenodd" d="M802.19 134.447C802.908 130.661 800.421 127.009 796.635 126.291C792.849 125.573 789.198 128.06 788.479 131.846C787.761 135.632 790.248 139.283 794.034 140.002C797.82 140.72 801.472 138.233 802.19 134.447ZM809.045 135.747C810.481 128.175 805.507 120.872 797.935 119.436C790.363 118 783.061 122.974 781.624 130.546C780.188 138.118 785.162 145.42 792.734 146.857C800.306 148.293 807.609 143.319 809.045 135.747Z" fill="#40D78F"/>
<path fill-rule="evenodd" clip-rule="evenodd" d="M897.757 188.183C895.519 186.922 894.728 184.085 895.99 181.847L908.131 160.309C909.393 158.071 912.23 157.28 914.468 158.542C916.705 159.803 917.497 162.64 916.235 164.878L904.094 186.415C902.832 188.653 899.995 189.445 897.757 188.183Z" fill="#5864FF"/>
<path fill-rule="evenodd" clip-rule="evenodd" d="M978.112 24.1572C981.917 24.7682 985.497 22.1791 986.108 18.3742C986.719 14.5694 984.129 10.9897 980.325 10.3788C976.52 9.76783 972.94 12.357 972.329 16.1618C971.718 19.9666 974.307 23.5463 978.112 24.1572ZM977.006 31.0465C984.616 32.2684 991.775 27.0901 992.997 19.4805C994.219 11.8708 989.04 4.71144 981.431 3.48954C973.821 2.26764 966.662 7.44593 965.44 15.0556C964.218 22.6652 969.396 29.8246 977.006 31.0465Z" fill="#FFE34F"/>
<path fill-rule="evenodd" clip-rule="evenodd" d="M1053.27 110.971L1047.81 124.676L1061.37 122.233L1053.27 110.971ZM1047.58 106.417C1049.28 102.15 1055.02 101.446 1057.7 105.175L1068.11 119.658C1070.6 123.129 1068.63 128.015 1064.42 128.773L1046.99 131.914C1042.5 132.724 1038.87 128.28 1040.56 124.04L1047.58 106.417Z" fill="#40D78F"/>
<path fill-rule="evenodd" clip-rule="evenodd" d="M1204.08 107.32C1200.22 107.302 1197.08 110.411 1197.07 114.264C1197.05 118.118 1200.16 121.256 1204.01 121.274C1207.86 121.292 1211 118.183 1211.02 114.33C1211.04 110.476 1207.93 107.338 1204.08 107.32ZM1204.11 100.342C1196.4 100.306 1190.13 106.525 1190.09 114.232C1190.05 121.939 1196.27 128.216 1203.98 128.252C1211.69 128.288 1217.96 122.069 1218 114.362C1218.03 106.655 1211.82 100.378 1204.11 100.342Z" fill="#40D78F"/>
<path fill-rule="evenodd" clip-rule="evenodd" d="M698.256 338.116C698.165 334.263 694.968 331.214 691.116 331.305C687.263 331.395 684.214 334.592 684.305 338.445C684.396 342.297 687.592 345.347 691.445 345.256C695.297 345.165 698.347 341.968 698.256 338.116ZM705.231 337.951C705.05 330.246 698.656 324.147 690.951 324.329C683.246 324.511 677.147 330.904 677.329 338.609C677.511 346.314 683.904 352.413 691.609 352.231C699.314 352.049 705.413 345.656 705.231 337.951Z" fill="#FFE34F"/>
<path d="M1042.89 248.955C1045.35 249.048 1047.79 247.827 1049.14 245.559C1050.5 243.291 1050.42 240.565 1049.17 238.438C1048.19 236.777 1047.53 234.65 1048.52 232.995C1049.51 231.341 1051.69 230.775 1053.05 232.14C1057.45 236.554 1058.48 243.542 1055.14 249.136C1051.8 254.73 1045.16 257.139 1039.19 255.364C1037.34 254.815 1036.8 252.622 1037.79 250.968C1038.78 249.314 1040.96 248.883 1042.89 248.955Z" fill="#34B0FF"/>
<path fill-rule="evenodd" clip-rule="evenodd" d="M921.186 316.156L931.716 305.825L918.332 302.585L921.186 316.156ZM924.557 322.624C921.279 325.841 915.74 324.165 914.795 319.67L911.125 302.218C910.245 298.035 914.028 294.364 918.183 295.37L935.394 299.537C939.83 300.611 941.356 306.142 938.098 309.338L924.557 322.624Z" fill="#5864FF"/>
<path fill-rule="evenodd" clip-rule="evenodd" d="M27.1298 59.5557C25.1458 56.2521 20.8594 55.1824 17.5558 57.1664C14.2522 59.1505 13.1825 63.4369 15.1665 66.7405C17.1505 70.044 21.437 71.1138 24.7405 69.1297C28.0441 67.1457 29.1138 62.8593 27.1298 59.5557ZM33.1115 55.9633C29.1434 49.3562 20.5706 47.2168 13.9634 51.1848C7.35627 55.1528 5.21684 63.7257 9.18487 70.3328C13.1529 76.94 21.7258 79.0794 28.3329 75.1114C34.9401 71.1434 37.0795 62.5705 33.1115 55.9633Z" fill="#FFA134"/>
<path d="M2044.98 238.502C2043.57 240.524 2043.28 243.235 2044.45 245.602C2045.62 247.969 2047.96 249.377 2050.42 249.477C2052.35 249.556 2054.49 250.156 2055.35 251.882C2056.2 253.608 2055.49 255.752 2053.61 256.156C2047.52 257.459 2041.09 254.538 2038.2 248.7C2035.3 242.863 2036.87 235.977 2041.6 231.919C2043.06 230.664 2045.2 231.4 2046.05 233.126C2046.91 234.853 2046.09 236.922 2044.98 238.502Z" fill="#34B0FF"/>
<path d="M183.92 78.7289C183.351 81.1295 184.075 83.7588 186.036 85.5278C187.997 87.2969 190.687 87.7465 193.016 86.9328C194.835 86.2974 197.05 86.0658 198.481 87.3563C199.912 88.6467 200.043 90.9007 198.439 91.9689C193.255 95.4224 186.201 95.0727 181.363 90.7092C176.525 86.3456 175.451 79.365 178.353 73.8529C179.251 72.148 181.506 72.0462 182.937 73.3367C184.368 74.6271 184.365 76.8542 183.92 78.7289Z" fill="#FFE34F"/>
</g>
<defs>
<clipPath id="clip0">
<rect width="2035" height="492" fill="white"/>
</clipPath>
</defs>
</svg>
