<svg width="2035" height="1475" viewBox="0 0 2035 1475" fill="none" xmlns="http://www.w3.org/2000/svg">
<g clip-path="url(#clip0)">
<path fill-rule="evenodd" clip-rule="evenodd" d="M622.634 854.379C621.687 851.991 622.855 849.287 625.243 848.34L648.225 839.225C650.614 838.278 653.317 839.446 654.264 841.835C655.211 844.223 654.043 846.926 651.655 847.873L628.673 856.988C626.284 857.935 623.581 856.767 622.634 854.379Z" fill="#34B0FF"/>
<path fill-rule="evenodd" clip-rule="evenodd" d="M559.187 718.557C560.02 716.127 562.665 714.832 565.095 715.665L588.484 723.681C590.914 724.514 592.209 727.16 591.376 729.59C590.543 732.02 587.897 733.315 585.467 732.482L562.079 724.466C559.649 723.633 558.354 720.987 559.187 718.557Z" fill="#FFA134"/>
<path fill-rule="evenodd" clip-rule="evenodd" d="M459.01 150.274C462.864 150.292 466.002 147.183 466.02 143.33C466.038 139.476 462.929 136.338 459.076 136.32C455.222 136.302 452.084 139.411 452.066 143.264C452.048 147.118 455.157 150.256 459.01 150.274ZM458.978 157.252C466.685 157.288 472.962 151.069 472.998 143.362C473.034 135.655 466.815 129.378 459.108 129.342C451.401 129.306 445.124 135.525 445.088 143.232C445.052 150.939 451.271 157.216 458.978 157.252Z" fill="#40D78F"/>
<path fill-rule="evenodd" clip-rule="evenodd" d="M516.502 202.307C516.593 206.159 519.79 209.209 523.642 209.118C527.495 209.027 530.544 205.83 530.453 201.978C530.362 198.125 527.166 195.076 523.313 195.167C519.461 195.258 516.411 198.454 516.502 202.307ZM509.527 202.471C509.708 210.176 516.102 216.275 523.807 216.093C531.512 215.912 537.61 209.518 537.429 201.813C537.247 194.108 530.853 188.009 523.149 188.191C515.444 188.373 509.345 194.766 509.527 202.471Z" fill="#FFE34F"/>
<path fill-rule="evenodd" clip-rule="evenodd" d="M335.328 420.722C335.419 424.574 338.616 427.624 342.468 427.533C346.321 427.442 349.37 424.245 349.279 420.393C349.188 416.54 345.992 413.491 342.139 413.582C338.287 413.673 335.237 416.869 335.328 420.722ZM328.353 420.886C328.534 428.591 334.928 434.69 342.633 434.508C350.338 434.327 356.437 427.933 356.255 420.228C356.073 412.523 349.68 406.424 341.975 406.606C334.27 406.788 328.171 413.181 328.353 420.886Z" fill="#FFA134"/>
<path d="M375.427 258.439C372.961 258.347 370.523 259.568 369.169 261.836C367.815 264.104 367.896 266.829 369.147 268.956C370.124 270.617 370.782 272.745 369.794 274.399C368.806 276.053 366.621 276.62 365.261 275.254C360.866 270.84 359.838 263.853 363.178 258.259C366.518 252.665 373.157 250.255 379.128 252.031C380.975 252.58 381.513 254.772 380.525 256.427C379.537 258.081 377.352 258.511 375.427 258.439Z" fill="#34B0FF"/>
<path d="M665.489 202.053C665.143 199.61 663.51 197.426 661.038 196.495C658.566 195.564 655.898 196.127 654.026 197.735C652.565 198.991 650.587 200.015 648.784 199.336C646.981 198.656 646.036 196.606 647.139 195.026C650.705 189.918 657.4 187.669 663.497 189.966C669.594 192.262 673.142 198.369 672.452 204.56C672.239 206.475 670.176 207.393 668.373 206.714C666.57 206.035 665.759 203.961 665.489 202.053Z" fill="#34B0FF"/>
<path fill-rule="evenodd" clip-rule="evenodd" d="M511.892 306.977L501.362 317.308L514.746 320.549L511.892 306.977ZM508.521 300.51C511.799 297.293 517.338 298.969 518.283 303.464L521.953 320.916C522.833 325.099 519.05 328.77 514.895 327.764L497.684 323.597C493.248 322.523 491.722 316.991 494.98 313.795L508.521 300.51Z" fill="#5864FF"/>
<path fill-rule="evenodd" clip-rule="evenodd" d="M637.981 626.778C637.263 630.564 639.75 634.216 643.536 634.934C647.322 635.652 650.973 633.165 651.691 629.379C652.41 625.593 649.923 621.941 646.137 621.223C642.351 620.505 638.699 622.992 637.981 626.778ZM631.126 625.478C629.689 633.05 634.663 640.353 642.235 641.789C649.808 643.225 657.11 638.251 658.547 630.679C659.983 623.107 655.009 615.804 647.437 614.368C639.865 612.932 632.562 617.906 631.126 625.478Z" fill="#34B0FF"/>
<path fill-rule="evenodd" clip-rule="evenodd" d="M542.413 573.042C544.651 574.303 545.443 577.14 544.181 579.378L532.039 600.915C530.778 603.153 527.941 603.945 525.703 602.683C523.465 601.422 522.674 598.585 523.935 596.347L536.077 574.809C537.338 572.572 540.175 571.78 542.413 573.042Z" fill="#5864FF"/>
<path fill-rule="evenodd" clip-rule="evenodd" d="M1700.09 67.6789C1697.87 66.3917 1697.11 63.5459 1698.4 61.3226L1710.79 39.9258C1712.07 37.7024 1714.92 36.9435 1717.14 38.2307C1719.37 39.5178 1720.13 42.3636 1718.84 44.587L1706.45 65.9838C1705.16 68.2071 1702.32 68.9661 1700.09 67.6789Z" fill="#FFA134"/>
<path fill-rule="evenodd" clip-rule="evenodd" d="M183.592 393.635C184.999 397.223 189.048 398.99 192.636 397.583C196.223 396.176 197.99 392.127 196.583 388.539C195.176 384.952 191.127 383.185 187.539 384.592C183.952 385.999 182.185 390.048 183.592 393.635ZM177.096 396.184C179.911 403.358 188.009 406.893 195.184 404.079C202.359 401.264 205.893 393.166 203.079 385.991C200.264 378.816 192.166 375.282 184.991 378.096C177.816 380.911 174.282 389.009 177.096 396.184Z" fill="#34B0FF"/>
<path fill-rule="evenodd" clip-rule="evenodd" d="M1554.08 56C1555.75 54.0483 1558.69 53.8203 1560.64 55.4908L1579.42 71.5675C1581.38 73.238 1581.6 76.1744 1579.93 78.1262C1578.26 80.0779 1575.33 80.3059 1573.37 78.6354L1554.59 62.5587C1552.64 60.8882 1552.41 57.9518 1554.08 56Z" fill="#5864FF"/>
<path fill-rule="evenodd" clip-rule="evenodd" d="M462.059 737.067C458.254 736.456 454.674 739.045 454.063 742.85C453.452 746.655 456.041 750.235 459.846 750.846C463.651 751.457 467.231 748.867 467.842 745.063C468.453 741.258 465.864 737.678 462.059 737.067ZM463.165 730.178C455.555 728.956 448.396 734.134 447.174 741.744C445.952 749.354 451.13 756.513 458.74 757.735C466.35 758.957 473.509 753.778 474.731 746.169C475.953 738.559 470.775 731.4 463.165 730.178Z" fill="#FFE34F"/>
<path d="M457.314 449.502C457.853 447.094 457.095 444.474 455.111 442.731C453.127 440.987 450.432 440.572 448.113 441.415C446.303 442.074 444.091 442.334 442.644 441.062C441.196 439.79 441.037 437.538 442.627 436.449C447.766 432.929 454.824 433.189 459.718 437.49C464.611 441.791 465.774 448.757 462.943 454.306C462.067 456.023 459.813 456.153 458.366 454.881C456.919 453.609 456.893 451.382 457.314 449.502Z" fill="#FFE34F"/>
<path fill-rule="evenodd" clip-rule="evenodd" d="M386.897 650.253L392.356 636.549L378.804 638.991L386.897 650.253ZM392.593 654.807C390.893 659.074 385.15 659.779 382.47 656.049L372.062 641.567C369.568 638.095 371.546 633.209 375.753 632.451L393.181 629.31C397.672 628.501 401.303 632.944 399.614 637.184L392.593 654.807Z" fill="#40D78F"/>
<path fill-rule="evenodd" clip-rule="evenodd" d="M1991.09 1046.23C1993.56 1045.52 1996.13 1046.95 1996.84 1049.42L2003.68 1073.18C2004.39 1075.65 2002.97 1078.22 2000.5 1078.93C1998.03 1079.64 1995.45 1078.22 1994.74 1075.75L1987.9 1051.99C1987.19 1049.52 1988.62 1046.94 1991.09 1046.23Z" fill="#34B0FF"/>
<path fill-rule="evenodd" clip-rule="evenodd" d="M1769.31 1289C1770.57 1291.24 1769.77 1294.08 1767.53 1295.33L1745.96 1307.41C1743.72 1308.67 1740.88 1307.87 1739.63 1305.63C1738.37 1303.39 1739.17 1300.55 1741.41 1299.3L1762.98 1287.22C1765.22 1285.96 1768.06 1286.76 1769.31 1289Z" fill="#34B0FF"/>
<path fill-rule="evenodd" clip-rule="evenodd" d="M1197.05 286.261C1195.81 288.508 1192.98 289.32 1190.73 288.074L1169.11 276.086C1166.86 274.841 1166.05 272.01 1167.29 269.763C1168.54 267.516 1171.37 266.704 1173.62 267.95L1195.24 279.937C1197.49 281.183 1198.3 284.014 1197.05 286.261Z" fill="#FFA134"/>
<path fill-rule="evenodd" clip-rule="evenodd" d="M1365.31 618.692C1365.89 614.883 1363.28 611.321 1359.47 610.736C1355.66 610.151 1352.1 612.764 1351.51 616.573C1350.93 620.382 1353.54 623.944 1357.35 624.529C1361.16 625.114 1364.72 622.5 1365.31 618.692ZM1372.2 619.751C1373.37 612.133 1368.15 605.009 1360.53 603.839C1352.91 602.669 1345.79 607.896 1344.62 615.513C1343.45 623.131 1348.67 630.255 1356.29 631.425C1363.91 632.596 1371.03 627.369 1372.2 619.751Z" fill="#FFA134"/>
<path fill-rule="evenodd" clip-rule="evenodd" d="M1188.09 432.465C1186.11 430.831 1185.82 427.9 1187.46 425.917L1203.18 406.839C1204.82 404.856 1207.75 404.574 1209.73 406.208C1211.71 407.842 1212 410.773 1210.36 412.756L1194.64 431.834C1193 433.817 1190.07 434.099 1188.09 432.465Z" fill="#5864FF"/>
<path fill-rule="evenodd" clip-rule="evenodd" d="M1295.92 285.043C1299.56 286.311 1303.54 284.388 1304.81 280.749C1306.07 277.11 1304.15 273.132 1300.51 271.865C1296.87 270.597 1292.9 272.519 1291.63 276.158C1290.36 279.798 1292.28 283.775 1295.92 285.043ZM1293.63 291.632C1300.9 294.167 1308.86 290.323 1311.4 283.045C1313.93 275.766 1310.09 267.811 1302.81 265.276C1295.53 262.74 1287.57 266.585 1285.04 273.863C1282.5 281.141 1286.35 289.097 1293.63 291.632Z" fill="#FFE34F"/>
<path d="M1250.24 568.996C1249.29 571.273 1249.58 573.985 1251.23 576.049C1252.87 578.113 1255.46 578.994 1257.89 578.569C1259.78 578.238 1262.01 578.369 1263.21 579.875C1264.41 581.381 1264.17 583.626 1262.42 584.419C1256.74 586.985 1249.84 585.494 1245.77 580.402C1241.71 575.31 1241.78 568.248 1245.54 563.281C1246.71 561.744 1248.95 562.01 1250.15 563.516C1251.35 565.022 1250.99 567.219 1250.24 568.996Z" fill="#FFE34F"/>
<path fill-rule="evenodd" clip-rule="evenodd" d="M1331.76 422.54L1323.99 435.077L1337.76 435.045L1331.76 422.54ZM1326.95 417.059C1329.37 413.155 1335.15 413.467 1337.14 417.609L1344.85 433.69C1346.7 437.544 1343.89 442.009 1339.62 442.018L1321.91 442.059C1317.35 442.07 1314.55 437.059 1316.96 433.18L1326.95 417.059Z" fill="#40D78F"/>
<path fill-rule="evenodd" clip-rule="evenodd" d="M621.705 409.894L625.685 424.098L634.972 413.93L621.705 409.894ZM614.413 409.732C613.174 405.309 617.31 401.263 621.705 402.6L638.766 407.791C642.856 409.036 644.25 414.119 641.367 417.276L629.424 430.351C626.346 433.721 620.764 432.393 619.532 427.998L614.413 409.732Z" fill="#34B0FF"/>
<path fill-rule="evenodd" clip-rule="evenodd" d="M81.6813 192.617L85.662 206.821L94.949 196.653L81.6813 192.617ZM74.3897 192.455C73.1503 188.032 77.2869 183.986 81.6811 185.323L98.7429 190.514C102.832 191.759 104.226 196.842 101.344 199.999L89.4008 213.074C86.3229 216.443 80.7402 215.116 79.5087 210.721L74.3897 192.455Z" fill="#34B0FF"/>
<path fill-rule="evenodd" clip-rule="evenodd" d="M606.161 52.2221L599.035 65.1381L612.786 64.4058L606.161 52.2221ZM601.078 46.9923C603.297 42.9708 609.083 42.9887 611.277 47.0238L619.796 62.6916C621.838 66.4471 619.266 71.0481 614.997 71.2754L597.314 72.2172C592.756 72.4599 589.709 67.5977 591.913 63.6018L601.078 46.9923Z" fill="#FFA134"/>
<path fill-rule="evenodd" clip-rule="evenodd" d="M1459.95 61.7432C1460.89 64.1313 1459.72 66.835 1457.34 67.7821L1434.35 76.8965C1431.97 77.8436 1429.26 76.6754 1428.32 74.2873C1427.37 71.8992 1428.54 69.1955 1430.92 68.2484L1453.91 59.134C1456.3 58.1869 1459 59.3551 1459.95 61.7432Z" fill="#34B0FF"/>
<path fill-rule="evenodd" clip-rule="evenodd" d="M1523.39 197.565C1522.56 199.995 1519.91 201.29 1517.48 200.457L1494.1 192.44C1491.67 191.607 1490.37 188.962 1491.2 186.532C1492.04 184.101 1494.68 182.807 1497.11 183.64L1520.5 191.656C1522.93 192.489 1524.23 195.134 1523.39 197.565Z" fill="#FFA134"/>
<path fill-rule="evenodd" clip-rule="evenodd" d="M1623.57 765.847C1619.72 765.829 1616.58 768.939 1616.56 772.792C1616.54 776.646 1619.65 779.784 1623.5 779.802C1627.36 779.82 1630.5 776.711 1630.51 772.857C1630.53 769.004 1627.42 765.865 1623.57 765.847ZM1623.6 758.87C1615.89 758.834 1609.62 765.053 1609.58 772.76C1609.55 780.467 1615.76 786.744 1623.47 786.78C1631.18 786.816 1637.46 780.597 1637.49 772.89C1637.53 765.183 1631.31 758.906 1623.6 758.87Z" fill="#34B0FF"/>
<path fill-rule="evenodd" clip-rule="evenodd" d="M1566.08 713.815C1565.99 709.963 1562.79 706.913 1558.94 707.004C1555.09 707.095 1552.04 710.292 1552.13 714.144C1552.22 717.997 1555.41 721.046 1559.27 720.955C1563.12 720.864 1566.17 717.668 1566.08 713.815ZM1573.05 713.651C1572.87 705.946 1566.48 699.847 1558.77 700.029C1551.07 700.21 1544.97 706.604 1545.15 714.309C1545.33 722.014 1551.73 728.112 1559.43 727.931C1567.14 727.749 1573.24 721.355 1573.05 713.651Z" fill="#FFE34F"/>
<path fill-rule="evenodd" clip-rule="evenodd" d="M1204.26 1255.12C1204.16 1251.26 1200.97 1248.21 1197.12 1248.3C1193.26 1248.4 1190.21 1251.59 1190.3 1255.44C1190.4 1259.3 1193.59 1262.35 1197.44 1262.26C1201.3 1262.17 1204.35 1258.97 1204.26 1255.12ZM1211.23 1254.95C1211.05 1247.25 1204.66 1241.15 1196.95 1241.33C1189.25 1241.51 1183.15 1247.9 1183.33 1255.61C1183.51 1263.31 1189.9 1269.41 1197.61 1269.23C1205.31 1269.05 1211.41 1262.66 1211.23 1254.95Z" fill="#FFE34F"/>
<path fill-rule="evenodd" clip-rule="evenodd" d="M1747.25 495.4C1747.16 491.548 1743.96 488.498 1740.11 488.589C1736.26 488.68 1733.21 491.877 1733.3 495.729C1733.39 499.582 1736.59 502.631 1740.44 502.54C1744.29 502.449 1747.34 499.252 1747.25 495.4ZM1754.23 495.235C1754.05 487.53 1747.65 481.432 1739.95 481.613C1732.24 481.795 1726.14 488.189 1726.33 495.894C1726.51 503.599 1732.9 509.697 1740.61 509.516C1748.31 509.334 1754.41 502.94 1754.23 495.235Z" fill="#5864FF"/>
<path fill-rule="evenodd" clip-rule="evenodd" d="M1901.26 1120.12C1901.16 1116.26 1897.97 1113.21 1894.12 1113.3C1890.26 1113.4 1887.21 1116.59 1887.3 1120.44C1887.4 1124.3 1890.59 1127.35 1894.44 1127.26C1898.3 1127.17 1901.35 1123.97 1901.26 1120.12ZM1908.23 1119.95C1908.05 1112.25 1901.66 1106.15 1893.95 1106.33C1886.25 1106.51 1880.15 1112.9 1880.33 1120.61C1880.51 1128.31 1886.9 1134.41 1894.61 1134.23C1902.31 1134.05 1908.41 1127.66 1908.23 1119.95Z" fill="#40D78F"/>
<path d="M1707.15 657.683C1709.62 657.775 1712.06 656.554 1713.41 654.286C1714.77 652.018 1714.68 649.292 1713.43 647.166C1712.46 645.505 1711.8 643.377 1712.79 641.723C1713.77 640.068 1715.96 639.502 1717.32 640.867C1721.71 645.282 1722.74 652.269 1719.4 657.863C1716.06 663.457 1709.42 665.867 1703.45 664.091C1701.61 663.542 1701.07 661.35 1702.05 659.695C1703.04 658.041 1705.23 657.611 1707.15 657.683Z" fill="#34B0FF"/>
<path d="M1417.09 714.069C1417.44 716.512 1419.07 718.696 1421.54 719.627C1424.01 720.558 1426.68 719.994 1428.55 718.387C1430.02 717.131 1431.99 716.107 1433.8 716.786C1435.6 717.465 1436.54 719.516 1435.44 721.096C1431.87 726.204 1425.18 728.453 1419.08 726.156C1412.99 723.86 1409.44 717.753 1410.13 711.562C1410.34 709.647 1412.4 708.729 1414.21 709.408C1416.01 710.087 1416.82 712.161 1417.09 714.069Z" fill="#34B0FF"/>
<path fill-rule="evenodd" clip-rule="evenodd" d="M1570.69 609.145L1581.22 598.814L1567.83 595.573L1570.69 609.145ZM1574.06 615.612C1570.78 618.829 1565.24 617.153 1564.3 612.658L1560.63 595.206C1559.75 591.023 1563.53 587.352 1567.68 588.358L1584.9 592.525C1589.33 593.599 1590.86 599.131 1587.6 602.327L1574.06 615.612Z" fill="#5864FF"/>
<path fill-rule="evenodd" clip-rule="evenodd" d="M1444.6 289.344C1445.32 285.558 1442.83 281.906 1439.04 281.188C1435.26 280.47 1431.61 282.957 1430.89 286.743C1430.17 290.529 1432.66 294.18 1436.44 294.899C1440.23 295.617 1443.88 293.13 1444.6 289.344ZM1451.45 290.644C1452.89 283.072 1447.92 275.769 1440.34 274.333C1432.77 272.897 1425.47 277.871 1424.03 285.443C1422.6 293.015 1427.57 300.317 1435.14 301.754C1442.72 303.19 1450.02 298.216 1451.45 290.644Z" fill="#40D78F"/>
<path fill-rule="evenodd" clip-rule="evenodd" d="M1540.17 343.08C1537.93 341.818 1537.14 338.982 1538.4 336.744L1550.54 315.206C1551.8 312.968 1554.64 312.177 1556.88 313.439C1559.11 314.7 1559.91 317.537 1558.64 319.775L1546.5 341.312C1545.24 343.55 1542.4 344.342 1540.17 343.08Z" fill="#5864FF"/>
<path fill-rule="evenodd" clip-rule="evenodd" d="M1620.52 179.054C1624.33 179.665 1627.91 177.076 1628.52 173.271C1629.13 169.466 1626.54 165.887 1622.73 165.276C1618.93 164.665 1615.35 167.254 1614.74 171.059C1614.13 174.864 1616.72 178.443 1620.52 179.054ZM1619.42 185.943C1627.02 187.165 1634.18 181.987 1635.41 174.377C1636.63 166.768 1631.45 159.608 1623.84 158.387C1616.23 157.165 1609.07 162.343 1607.85 169.953C1606.63 177.562 1611.81 184.722 1619.42 185.943Z" fill="#FFE34F"/>
<path d="M1625.27 466.62C1624.73 469.028 1625.48 471.647 1627.47 473.391C1629.45 475.135 1632.15 475.55 1634.47 474.707C1636.28 474.048 1638.49 473.788 1639.94 475.06C1641.38 476.332 1641.54 478.584 1639.95 479.673C1634.81 483.193 1627.76 482.933 1622.86 478.632C1617.97 474.331 1616.81 467.364 1619.64 461.816C1620.51 460.099 1622.77 459.969 1624.21 461.241C1625.66 462.513 1625.69 464.74 1625.27 466.62Z" fill="#FFE34F"/>
<path fill-rule="evenodd" clip-rule="evenodd" d="M1331.18 898.782C1333.41 901.922 1337.77 902.657 1340.91 900.424C1344.05 898.19 1344.78 893.834 1342.55 890.693C1340.31 887.553 1335.96 886.818 1332.82 889.052C1329.68 891.285 1328.94 895.641 1331.18 898.782ZM1325.49 902.826C1329.96 909.106 1338.67 910.577 1344.95 906.109C1351.23 901.642 1352.7 892.93 1348.23 886.649C1343.77 880.369 1335.05 878.899 1328.77 883.366C1322.49 887.833 1321.02 896.545 1325.49 902.826Z" fill="#40D78F"/>
<path fill-rule="evenodd" clip-rule="evenodd" d="M1322.46 975.831C1319.38 978.152 1318.77 982.527 1321.09 985.603C1323.41 988.679 1327.79 989.291 1330.86 986.97C1333.94 984.648 1334.55 980.273 1332.23 977.197C1329.91 974.121 1325.53 973.509 1322.46 975.831ZM1318.25 970.261C1312.1 974.904 1310.88 983.655 1315.52 989.806C1320.16 995.958 1328.91 997.182 1335.06 992.539C1341.22 987.896 1342.44 979.146 1337.8 972.994C1333.15 966.842 1324.4 965.619 1318.25 970.261Z" fill="#FFE34F"/>
<path fill-rule="evenodd" clip-rule="evenodd" d="M1039.37 956.105C1036.29 958.426 1035.68 962.802 1038 965.878C1040.32 968.954 1044.7 969.565 1047.77 967.244C1050.85 964.923 1051.46 960.547 1049.14 957.471C1046.82 954.396 1042.44 953.784 1039.37 956.105ZM1035.16 950.536C1029.01 955.178 1027.79 963.929 1032.43 970.081C1037.07 976.233 1045.82 977.456 1051.97 972.814C1058.13 968.171 1059.35 959.42 1054.71 953.268C1050.06 947.116 1041.31 945.893 1035.16 950.536Z" fill="#5864FF"/>
<path d="M1194.56 893.998C1193.2 891.942 1190.78 890.673 1188.15 890.897C1185.52 891.12 1183.35 892.777 1182.36 895.033C1181.58 896.796 1180.23 898.571 1178.31 898.734C1176.39 898.897 1174.66 897.452 1174.97 895.551C1176 889.406 1181.07 884.495 1187.56 883.944C1194.06 883.394 1199.89 887.38 1201.93 893.265C1202.56 895.085 1201.09 896.802 1199.17 896.965C1197.25 897.127 1195.63 895.604 1194.56 893.998Z" fill="#34B0FF"/>
<path fill-rule="evenodd" clip-rule="evenodd" d="M1234.75 1033.15L1220.22 1030.62L1225.4 1043.39L1234.75 1033.15ZM1238.04 1026.64C1242.57 1027.43 1244.44 1032.9 1241.34 1036.29L1229.3 1049.45C1226.42 1052.61 1221.23 1051.68 1219.62 1047.72L1212.97 1031.31C1211.25 1027.08 1214.85 1022.61 1219.35 1023.39L1238.04 1026.64Z" fill="#5864FF"/>
<path d="M1087.16 1071.97C1089.43 1071 1091.11 1068.86 1091.37 1066.23C1091.63 1063.6 1090.39 1061.17 1088.36 1059.78C1086.77 1058.69 1085.26 1057.05 1085.45 1055.13C1085.64 1053.21 1087.38 1051.77 1089.19 1052.43C1095.05 1054.55 1098.95 1060.43 1098.32 1066.92C1097.68 1073.4 1092.7 1078.41 1086.54 1079.35C1084.63 1079.64 1083.21 1077.88 1083.4 1075.96C1083.59 1074.05 1085.38 1072.73 1087.16 1071.97Z" fill="#FFE34F"/>
<path fill-rule="evenodd" clip-rule="evenodd" d="M1695.68 265.868L1690.22 279.573L1703.78 277.13L1695.68 265.868ZM1689.99 261.314C1691.69 257.047 1697.43 256.343 1700.11 260.072L1710.52 274.555C1713.01 278.026 1711.03 282.912 1706.83 283.67L1689.4 286.811C1684.91 287.621 1681.28 283.177 1682.97 278.937L1689.99 261.314Z" fill="#40D78F"/>
<path fill-rule="evenodd" clip-rule="evenodd" d="M1459.95 61.7432C1460.89 64.1313 1459.72 66.835 1457.34 67.7821L1434.35 76.8965C1431.97 77.8436 1429.26 76.6754 1428.32 74.2873C1427.37 71.8992 1428.54 69.1955 1430.92 68.2484L1453.91 59.134C1456.3 58.1869 1459 59.3551 1459.95 61.7432Z" fill="#34B0FF"/>
<path fill-rule="evenodd" clip-rule="evenodd" d="M1523.39 197.565C1522.56 199.995 1519.91 201.29 1517.48 200.457L1494.1 192.44C1491.67 191.607 1490.37 188.962 1491.2 186.532C1492.04 184.101 1494.68 182.807 1497.11 183.64L1520.5 191.656C1522.93 192.489 1524.23 195.134 1523.39 197.565Z" fill="#FFA134"/>
<path fill-rule="evenodd" clip-rule="evenodd" d="M1444.6 289.344C1445.32 285.558 1442.83 281.906 1439.04 281.188C1435.26 280.47 1431.61 282.957 1430.89 286.743C1430.17 290.529 1432.66 294.18 1436.44 294.899C1440.23 295.617 1443.88 293.13 1444.6 289.344ZM1451.45 290.644C1452.89 283.072 1447.92 275.769 1440.34 274.333C1432.77 272.897 1425.47 277.871 1424.03 285.443C1422.6 293.015 1427.57 300.317 1435.14 301.754C1442.72 303.19 1450.02 298.216 1451.45 290.644Z" fill="#40D78F"/>
<path fill-rule="evenodd" clip-rule="evenodd" d="M1540.17 343.08C1537.93 341.818 1537.14 338.982 1538.4 336.744L1550.54 315.206C1551.8 312.968 1554.64 312.177 1556.88 313.439C1559.11 314.7 1559.91 317.537 1558.64 319.775L1546.5 341.312C1545.24 343.55 1542.4 344.342 1540.17 343.08Z" fill="#5864FF"/>
<path fill-rule="evenodd" clip-rule="evenodd" d="M432.364 54.9291C429.917 55.7112 427.299 54.3615 426.517 51.9144L418.99 28.3642C418.208 25.9171 419.558 23.2993 422.005 22.5172C424.452 21.7351 427.07 23.0848 427.852 25.5319L435.379 49.0821C436.161 51.5292 434.811 54.147 432.364 54.9291Z" fill="#FFA134"/>
<path fill-rule="evenodd" clip-rule="evenodd" d="M311.697 46.486C315.164 44.8026 316.609 40.6278 314.926 37.1614C313.242 33.695 309.067 32.2496 305.601 33.9331C302.135 35.6165 300.689 39.7913 302.373 43.2577C304.056 46.7241 308.231 48.1695 311.697 46.486ZM314.746 52.7625C321.678 49.3956 324.569 41.0461 321.202 34.1133C317.835 27.1805 309.486 24.2897 302.553 27.6566C295.62 31.0235 292.729 39.3731 296.096 46.3059C299.463 53.2387 307.813 56.1294 314.746 52.7625Z" fill="#40D78F"/>
<path fill-rule="evenodd" clip-rule="evenodd" d="M325.62 155.238C325.297 152.689 327.101 150.361 329.649 150.037L354.176 146.925C356.725 146.601 359.053 148.405 359.377 150.954C359.7 153.502 357.896 155.831 355.348 156.154L330.82 159.267C328.272 159.59 325.943 157.786 325.62 155.238Z" fill="#5864FF"/>
<path fill-rule="evenodd" clip-rule="evenodd" d="M432.364 54.9291C429.917 55.7112 427.299 54.3615 426.517 51.9144L418.99 28.3642C418.208 25.9171 419.558 23.2993 422.005 22.5172C424.452 21.7351 427.07 23.0848 427.852 25.5319L435.379 49.0821C436.161 51.5292 434.811 54.147 432.364 54.9291Z" fill="#FFA134"/>
<path fill-rule="evenodd" clip-rule="evenodd" d="M311.697 46.486C315.164 44.8026 316.609 40.6278 314.926 37.1614C313.242 33.695 309.067 32.2496 305.601 33.9331C302.135 35.6165 300.689 39.7913 302.373 43.2577C304.056 46.7241 308.231 48.1695 311.697 46.486ZM314.746 52.7625C321.678 49.3956 324.569 41.0461 321.202 34.1133C317.835 27.1805 309.486 24.2897 302.553 27.6566C295.62 31.0235 292.729 39.3731 296.096 46.3059C299.463 53.2387 307.813 56.1294 314.746 52.7625Z" fill="#40D78F"/>
<path fill-rule="evenodd" clip-rule="evenodd" d="M325.62 155.238C325.297 152.689 327.101 150.361 329.649 150.037L354.176 146.925C356.725 146.601 359.053 148.405 359.377 150.954C359.7 153.502 357.896 155.831 355.348 156.154L330.82 159.267C328.272 159.59 325.943 157.786 325.62 155.238Z" fill="#5864FF"/>
<path fill-rule="evenodd" clip-rule="evenodd" d="M92.0883 48.2705C91.7649 45.7219 93.5688 43.3936 96.1174 43.0702L120.645 39.9576C123.193 39.6342 125.521 41.4381 125.845 43.9867C126.168 46.5353 124.364 48.8635 121.816 49.1869L97.2886 52.2995C94.74 52.6229 92.4118 50.8191 92.0883 48.2705Z" fill="#5864FF"/>
<path fill-rule="evenodd" clip-rule="evenodd" d="M1620.52 179.054C1624.33 179.665 1627.91 177.076 1628.52 173.271C1629.13 169.466 1626.54 165.887 1622.73 165.276C1618.93 164.665 1615.35 167.254 1614.74 171.059C1614.13 174.864 1616.72 178.443 1620.52 179.054ZM1619.42 185.943C1627.02 187.165 1634.18 181.987 1635.41 174.377C1636.63 166.768 1631.45 159.608 1623.84 158.387C1616.23 157.165 1609.07 162.343 1607.85 169.953C1606.63 177.562 1611.81 184.722 1619.42 185.943Z" fill="#FFE34F"/>
<path fill-rule="evenodd" clip-rule="evenodd" d="M1695.68 265.868L1690.22 279.573L1703.78 277.13L1695.68 265.868ZM1689.99 261.314C1691.69 257.047 1697.43 256.343 1700.11 260.072L1710.52 274.555C1713.01 278.026 1711.03 282.912 1706.83 283.67L1689.4 286.811C1684.91 287.621 1681.28 283.177 1682.97 278.937L1689.99 261.314Z" fill="#40D78F"/>
<path fill-rule="evenodd" clip-rule="evenodd" d="M1554.6 1098.08C1551.85 1095.37 1547.44 1095.4 1544.73 1098.15C1542.02 1100.89 1542.05 1105.31 1544.8 1108.02C1547.54 1110.72 1551.96 1110.69 1554.66 1107.95C1557.37 1105.21 1557.34 1100.79 1554.6 1098.08ZM1559.5 1093.11C1554.01 1087.7 1545.17 1087.76 1539.76 1093.25C1534.35 1098.73 1534.41 1107.57 1539.9 1112.98C1545.38 1118.4 1554.22 1118.34 1559.63 1112.85C1565.04 1107.36 1564.98 1098.53 1559.5 1093.11Z" fill="#40D78F"/>
<path fill-rule="evenodd" clip-rule="evenodd" d="M1549.85 1020.69C1552.48 1017.87 1552.32 1013.45 1549.5 1010.82C1546.69 1008.2 1542.27 1008.35 1539.64 1011.17C1537.02 1013.99 1537.17 1018.4 1539.99 1021.03C1542.81 1023.66 1547.22 1023.5 1549.85 1020.69ZM1554.95 1025.44C1560.21 1019.81 1559.9 1010.98 1554.26 1005.72C1548.63 1000.47 1539.8 1000.77 1534.54 1006.41C1529.28 1012.05 1529.59 1020.88 1535.23 1026.14C1540.87 1031.39 1549.7 1031.08 1554.95 1025.44Z" fill="#FFE34F"/>
<path fill-rule="evenodd" clip-rule="evenodd" d="M1832.08 991.122C1834.71 988.303 1834.56 983.888 1831.74 981.26C1828.92 978.632 1824.5 978.787 1821.87 981.606C1819.25 984.424 1819.4 988.839 1822.22 991.467C1825.04 994.095 1829.45 993.94 1832.08 991.122ZM1837.19 995.88C1842.44 990.242 1842.13 981.412 1836.49 976.156C1830.86 970.901 1822.03 971.21 1816.77 976.848C1811.52 982.485 1811.83 991.315 1817.46 996.571C1823.1 1001.83 1831.93 1001.52 1837.19 995.88Z" fill="#5864FF"/>
<path d="M1689.98 1079.15C1691.67 1080.94 1694.27 1081.77 1696.82 1081.1C1699.38 1080.42 1701.23 1078.41 1701.82 1076.02C1702.28 1074.15 1703.3 1072.17 1705.16 1071.67C1707.02 1071.18 1708.98 1072.3 1709 1074.23C1709.06 1080.46 1704.91 1086.18 1698.61 1087.84C1692.31 1089.51 1685.88 1086.59 1682.85 1081.15C1681.91 1079.46 1683.06 1077.52 1684.92 1077.03C1686.79 1076.53 1688.65 1077.75 1689.98 1079.15Z" fill="#34B0FF"/>
<path fill-rule="evenodd" clip-rule="evenodd" d="M1626.31 949.053L1641.06 949.024L1633.75 937.352L1626.31 949.053ZM1624.2 956.034C1619.61 956.043 1616.82 950.973 1619.28 947.098L1628.86 932.052C1631.15 928.445 1636.42 928.465 1638.69 932.088L1648.09 947.098C1650.51 950.966 1647.73 955.989 1643.17 955.998L1624.2 956.034Z" fill="#5864FF"/>
<path fill-rule="evenodd" clip-rule="evenodd" d="M1790.45 737.444C1789.73 734.977 1791.15 732.395 1793.62 731.676L1817.35 724.761C1819.82 724.042 1822.4 725.459 1823.12 727.925C1823.84 730.392 1822.42 732.974 1819.96 733.693L1796.22 740.608C1793.75 741.327 1791.17 739.91 1790.45 737.444Z" fill="#5864FF"/>
<path d="M1764.96 885.274C1762.89 886.62 1761.6 889.023 1761.8 891.656C1762 894.29 1763.64 896.471 1765.89 897.488C1767.64 898.283 1769.41 899.643 1769.55 901.564C1769.7 903.486 1768.24 905.208 1766.34 904.875C1760.2 903.8 1755.34 898.681 1754.85 892.184C1754.35 885.688 1758.39 879.893 1764.29 877.904C1766.12 877.289 1767.82 878.771 1767.97 880.692C1768.11 882.613 1766.58 884.224 1764.96 885.274Z" fill="#FFE34F"/>
<path fill-rule="evenodd" clip-rule="evenodd" d="M1955.64 790.927L1942.16 796.912L1953.55 804.638L1955.64 790.927ZM1954.75 783.688C1958.95 781.825 1963.55 785.336 1962.86 789.877L1960.18 807.508C1959.53 811.734 1954.7 813.846 1951.17 811.447L1936.51 801.512C1932.73 798.952 1933.24 793.236 1937.41 791.385L1954.75 783.688Z" fill="#40D78F"/>
<path fill-rule="evenodd" clip-rule="evenodd" d="M220.734 243.27L215.1 256.903L228.683 254.634L220.734 243.27ZM215.097 238.643C216.851 234.398 222.603 233.767 225.235 237.531L235.457 252.145C237.906 255.648 235.866 260.509 231.65 261.213L214.183 264.131C209.682 264.882 206.108 260.392 207.851 256.175L215.097 238.643Z" fill="#40D78F"/>
<path fill-rule="evenodd" clip-rule="evenodd" d="M266.467 555.157C269.658 557.318 273.996 556.482 276.157 553.291C278.317 550.101 277.482 545.762 274.291 543.602C271.1 541.441 266.762 542.276 264.602 545.467C262.441 548.658 263.276 552.996 266.467 555.157ZM262.555 560.935C268.937 565.256 277.613 563.585 281.934 557.203C286.256 550.822 284.585 542.145 278.203 537.824C271.821 533.503 263.145 535.173 258.824 541.555C254.503 547.937 256.173 556.614 262.555 560.935Z" fill="#40D78F"/>
<path fill-rule="evenodd" clip-rule="evenodd" d="M1917.36 55.6829C1918.31 59.4186 1922.1 61.6802 1925.84 60.7344C1929.57 59.7886 1931.84 55.9934 1930.89 52.2578C1929.94 48.5221 1926.15 46.2605 1922.41 47.2063C1918.68 48.1521 1916.42 51.9472 1917.36 55.6829ZM1910.6 57.3955C1912.49 64.8669 1920.08 69.3901 1927.55 67.4984C1935.02 65.6068 1939.55 58.0166 1937.65 50.5452C1935.76 43.0738 1928.17 38.5506 1920.7 40.4422C1913.23 42.3339 1908.71 49.9241 1910.6 57.3955Z" fill="#FFE34F"/>
<path fill-rule="evenodd" clip-rule="evenodd" d="M1789.33 308.936C1790.28 312.672 1794.07 314.933 1797.81 313.987C1801.54 313.041 1803.81 309.246 1802.86 305.511C1801.91 301.775 1798.12 299.513 1794.38 300.459C1790.65 301.405 1788.39 305.2 1789.33 308.936ZM1782.57 310.648C1784.46 318.12 1792.05 322.643 1799.52 320.751C1806.99 318.86 1811.52 311.269 1809.62 303.798C1807.73 296.327 1800.14 291.804 1792.67 293.695C1785.2 295.587 1780.68 303.177 1782.57 310.648Z" fill="#5864FF"/>
<path d="M1792.31 141.799C1789.89 142.258 1787.78 143.991 1786.97 146.503C1786.15 149.016 1786.84 151.655 1788.53 153.45C1789.85 154.852 1790.97 156.78 1790.37 158.613C1789.78 160.445 1787.77 161.484 1786.14 160.455C1780.88 157.129 1778.32 150.546 1780.33 144.349C1782.34 138.152 1788.28 134.326 1794.5 134.728C1796.42 134.852 1797.43 136.87 1796.84 138.703C1796.24 140.536 1794.21 141.441 1792.31 141.799Z" fill="#34B0FF"/>
<path fill-rule="evenodd" clip-rule="evenodd" d="M1936.16 158.755L1928.19 171.171L1941.96 171.351L1936.16 158.755ZM1931.43 153.2C1933.91 149.334 1939.69 149.736 1941.61 153.908L1949.07 170.106C1950.86 173.988 1947.99 178.409 1943.71 178.352L1926 178.12C1921.44 178.06 1918.72 173.007 1921.19 169.166L1931.43 153.2Z" fill="#5864FF"/>
<path fill-rule="evenodd" clip-rule="evenodd" d="M2025.12 411.358C2027.58 412.09 2028.98 414.679 2028.25 417.142L2021.21 440.841C2020.47 443.303 2017.89 444.706 2015.42 443.974C2012.96 443.242 2011.56 440.653 2012.29 438.19L2019.33 414.491C2020.07 412.029 2022.66 410.626 2025.12 411.358Z" fill="#5864FF"/>
<path d="M1914.66 309.851C1914.65 307.384 1913.33 304.998 1911.01 303.74C1908.69 302.481 1905.97 302.676 1903.89 304.014C1902.27 305.059 1900.18 305.805 1898.48 304.887C1896.79 303.969 1896.13 301.808 1897.44 300.393C1901.67 295.818 1908.61 294.501 1914.33 297.605C1920.06 300.71 1922.75 307.243 1921.22 313.282C1920.75 315.15 1918.58 315.779 1916.89 314.861C1915.19 313.943 1914.67 311.778 1914.66 309.851Z" fill="#FFE34F"/>
<path fill-rule="evenodd" clip-rule="evenodd" d="M1890.68 521.238L1892.95 506.662L1880.28 512.059L1890.68 521.238ZM1897.25 524.411C1896.54 528.949 1891.1 530.914 1887.65 527.874L1874.29 516.07C1871.08 513.241 1871.92 508.037 1875.85 506.362L1892.15 499.422C1896.35 497.633 1900.87 501.158 1900.17 505.667L1897.25 524.411Z" fill="#40D78F"/>
<path fill-rule="evenodd" clip-rule="evenodd" d="M880.984 42.6676C880.151 45.0978 877.506 46.3927 875.076 45.5597L851.687 37.5433C849.257 36.7103 847.962 34.0649 848.795 31.6347C849.628 29.2044 852.274 27.9096 854.704 28.7426L878.092 36.759C880.522 37.592 881.817 40.2374 880.984 42.6676Z" fill="#FFA134"/>
<path fill-rule="evenodd" clip-rule="evenodd" d="M802.19 134.447C802.908 130.661 800.421 127.009 796.635 126.291C792.849 125.573 789.198 128.06 788.479 131.846C787.761 135.632 790.248 139.283 794.034 140.002C797.82 140.72 801.472 138.233 802.19 134.447ZM809.045 135.747C810.481 128.175 805.507 120.872 797.935 119.436C790.363 118 783.061 122.974 781.624 130.546C780.188 138.118 785.162 145.42 792.734 146.857C800.306 148.293 807.609 143.319 809.045 135.747Z" fill="#40D78F"/>
<path fill-rule="evenodd" clip-rule="evenodd" d="M897.757 188.183C895.519 186.922 894.728 184.085 895.99 181.847L908.131 160.309C909.393 158.071 912.23 157.28 914.468 158.542C916.705 159.803 917.497 162.64 916.235 164.878L904.094 186.415C902.832 188.653 899.995 189.445 897.757 188.183Z" fill="#5864FF"/>
<path fill-rule="evenodd" clip-rule="evenodd" d="M978.112 24.1572C981.917 24.7682 985.497 22.1791 986.108 18.3742C986.719 14.5694 984.129 10.9897 980.325 10.3788C976.52 9.76783 972.94 12.357 972.329 16.1618C971.718 19.9666 974.307 23.5463 978.112 24.1572ZM977.006 31.0465C984.616 32.2684 991.775 27.0901 992.997 19.4805C994.219 11.8708 989.04 4.71144 981.431 3.48954C973.821 2.26764 966.662 7.44593 965.44 15.0556C964.218 22.6652 969.396 29.8246 977.006 31.0465Z" fill="#FFE34F"/>
<path fill-rule="evenodd" clip-rule="evenodd" d="M1053.27 110.971L1047.81 124.676L1061.37 122.233L1053.27 110.971ZM1047.58 106.417C1049.28 102.15 1055.02 101.446 1057.7 105.175L1068.11 119.658C1070.6 123.129 1068.63 128.015 1064.42 128.773L1046.99 131.914C1042.5 132.724 1038.87 128.28 1040.56 124.04L1047.58 106.417Z" fill="#40D78F"/>
<path fill-rule="evenodd" clip-rule="evenodd" d="M1231.46 733.408C1229.01 732.629 1227.66 730.013 1228.44 727.565L1235.93 704.005C1236.71 701.557 1239.33 700.203 1241.78 700.982C1244.22 701.761 1245.58 704.377 1244.8 706.825L1237.3 730.385C1236.52 732.834 1233.91 734.187 1231.46 733.408Z" fill="#34B0FF"/>
<path fill-rule="evenodd" clip-rule="evenodd" d="M1086.16 696.525C1084.8 694.341 1085.48 691.474 1087.66 690.12L1108.67 677.092C1110.86 675.738 1113.72 676.411 1115.08 678.595C1116.43 680.778 1115.76 683.645 1113.58 684.999L1092.56 698.027C1090.38 699.381 1087.51 698.708 1086.16 696.525Z" fill="#FFA134"/>
<path fill-rule="evenodd" clip-rule="evenodd" d="M1065 577.426C1067.48 580.379 1071.88 580.765 1074.83 578.29C1077.79 575.814 1078.17 571.413 1075.7 568.46C1073.22 565.507 1068.82 565.12 1065.87 567.596C1062.92 570.072 1062.53 574.473 1065 577.426ZM1059.66 581.909C1064.61 587.814 1073.41 588.588 1079.32 583.636C1085.22 578.685 1086 569.883 1081.05 563.977C1076.09 558.071 1067.29 557.297 1061.39 562.249C1055.48 567.201 1054.71 576.003 1059.66 581.909Z" fill="#40D78F"/>
<path fill-rule="evenodd" clip-rule="evenodd" d="M962.903 617.376C965.297 616.442 967.994 617.626 968.927 620.019L977.911 643.053C978.844 645.447 977.661 648.144 975.267 649.077C972.874 650.011 970.177 648.827 969.243 646.434L960.26 623.4C959.326 621.006 960.51 618.309 962.903 617.376Z" fill="#5864FF"/>
<path fill-rule="evenodd" clip-rule="evenodd" d="M1038.99 783.425C1036.11 785.984 1035.85 790.394 1038.4 793.276C1040.96 796.158 1045.37 796.42 1048.25 793.862C1051.14 791.303 1051.4 786.893 1048.84 784.011C1046.28 781.129 1041.87 780.867 1038.99 783.425ZM1034.36 778.207C1028.59 783.324 1028.07 792.144 1033.19 797.908C1038.3 803.672 1047.12 804.196 1052.89 799.08C1058.65 793.963 1059.17 785.143 1054.06 779.379C1048.94 773.615 1040.12 773.091 1034.36 778.207Z" fill="#FFE34F"/>
<path fill-rule="evenodd" clip-rule="evenodd" d="M924.204 786.638L917.053 773.735L910.363 785.772L924.204 786.638ZM931.336 785.112C933.563 789.13 930.471 794.021 925.887 793.734L908.088 792.621C903.822 792.354 901.292 787.729 903.369 783.993L911.972 768.514C914.189 764.525 919.927 764.529 922.14 768.52L931.336 785.112Z" fill="#40D78F"/>
<path fill-rule="evenodd" clip-rule="evenodd" d="M1460.88 506.228L1456.89 492.024L1447.61 502.191L1460.88 506.228ZM1468.17 506.39C1469.41 510.812 1465.27 514.858 1460.88 513.522L1443.81 508.33C1439.72 507.086 1438.33 502.002 1441.21 498.846L1453.16 485.771C1456.23 482.401 1461.82 483.729 1463.05 488.123L1468.17 506.39Z" fill="#34B0FF"/>
<path fill-rule="evenodd" clip-rule="evenodd" d="M1476.42 863.899L1483.55 850.983L1469.79 851.716L1476.42 863.899ZM1481.5 869.129C1479.28 873.151 1473.5 873.133 1471.3 869.097L1462.78 853.43C1460.74 849.674 1463.31 845.073 1467.58 844.846L1485.27 843.904C1489.82 843.661 1492.87 848.524 1490.67 852.52L1481.5 869.129Z" fill="#FFA134"/>
<path fill-rule="evenodd" clip-rule="evenodd" d="M1204.08 107.32C1200.22 107.302 1197.08 110.411 1197.07 114.264C1197.05 118.118 1200.16 121.256 1204.01 121.274C1207.86 121.292 1211 118.183 1211.02 114.33C1211.04 110.476 1207.93 107.338 1204.08 107.32ZM1204.11 100.342C1196.4 100.306 1190.12 106.525 1190.09 114.232C1190.05 121.939 1196.27 128.216 1203.98 128.252C1211.69 128.288 1217.96 122.069 1218 114.362C1218.03 106.655 1211.82 100.378 1204.11 100.342Z" fill="#40D78F"/>
<path fill-rule="evenodd" clip-rule="evenodd" d="M902.078 679.393C901.987 675.541 898.79 672.491 894.938 672.582C891.085 672.673 888.036 675.87 888.127 679.722C888.218 683.575 891.415 686.624 895.267 686.533C899.12 686.442 902.169 683.246 902.078 679.393ZM909.054 679.229C908.872 671.524 902.478 665.425 894.773 665.607C887.068 665.788 880.97 672.182 881.151 679.887C881.333 687.592 887.727 693.691 895.432 693.509C903.137 693.327 909.235 686.934 909.054 679.229Z" fill="#FFE34F"/>
<path d="M753.091 679.647C753.437 682.09 755.07 684.274 757.542 685.205C760.014 686.136 762.682 685.573 764.554 683.965C766.015 682.709 767.993 681.685 769.796 682.364C771.599 683.043 772.544 685.094 771.441 686.674C767.875 691.782 761.18 694.031 755.083 691.734C748.986 689.438 745.438 683.331 746.128 677.14C746.341 675.225 748.404 674.307 750.207 674.986C752.01 675.665 752.821 677.739 753.091 679.647Z" fill="#34B0FF"/>
<path fill-rule="evenodd" clip-rule="evenodd" d="M772.673 826.582L779.799 813.666L766.048 814.398L772.673 826.582ZM777.756 831.812C775.537 835.833 769.751 835.815 767.557 831.78L759.038 816.112C756.996 812.357 759.568 807.756 763.837 807.529L781.52 806.587C786.078 806.344 789.125 811.206 786.921 815.202L777.756 831.812Z" fill="#FFA134"/>
<path fill-rule="evenodd" clip-rule="evenodd" d="M967.569 456.136C963.716 456.118 960.577 459.228 960.559 463.081C960.541 466.935 963.65 470.073 967.504 470.091C971.358 470.109 974.496 467 974.514 463.146C974.532 459.293 971.423 456.154 967.569 456.136ZM967.602 449.159C959.895 449.123 953.618 455.342 953.582 463.049C953.546 470.756 959.764 477.033 967.471 477.069C975.178 477.105 981.455 470.886 981.491 463.179C981.527 455.472 975.309 449.195 967.602 449.159Z" fill="#34B0FF"/>
<path fill-rule="evenodd" clip-rule="evenodd" d="M910.078 404.104C909.987 400.251 906.79 397.202 902.938 397.293C899.085 397.384 896.036 400.58 896.127 404.433C896.218 408.285 899.415 411.335 903.267 411.244C907.12 411.153 910.169 407.956 910.078 404.104ZM917.054 403.939C916.872 396.234 910.478 390.136 902.773 390.317C895.068 390.499 888.97 396.893 889.151 404.597C889.333 412.302 895.727 418.401 903.432 418.22C911.137 418.038 917.235 411.644 917.054 403.939Z" fill="#FFE34F"/>
<path d="M1051.15 347.971C1053.62 348.064 1056.06 346.843 1057.41 344.575C1058.77 342.307 1058.68 339.581 1057.43 337.454C1056.46 335.794 1055.8 333.666 1056.79 332.012C1057.77 330.357 1059.96 329.791 1061.32 331.156C1065.71 335.571 1066.74 342.558 1063.4 348.152C1060.06 353.746 1053.42 356.155 1047.45 354.38C1045.61 353.831 1045.07 351.638 1046.05 349.984C1047.04 348.33 1049.23 347.899 1051.15 347.971Z" fill="#34B0FF"/>
<path d="M761.091 404.358C761.437 406.801 763.07 408.984 765.542 409.915C768.014 410.846 770.682 410.283 772.554 408.675C774.015 407.42 775.993 406.396 777.796 407.075C779.599 407.754 780.544 409.805 779.441 411.385C775.875 416.492 769.18 418.742 763.083 416.445C756.986 414.149 753.438 408.041 754.128 401.85C754.341 399.935 756.404 399.017 758.207 399.697C760.01 400.376 760.821 402.45 761.091 404.358Z" fill="#34B0FF"/>
<path fill-rule="evenodd" clip-rule="evenodd" d="M914.688 299.433L925.218 289.102L911.834 285.862L914.688 299.433ZM918.059 305.901C914.781 309.118 909.242 307.442 908.297 302.947L904.627 285.495C903.747 281.312 907.53 277.641 911.685 278.647L928.896 282.814C933.332 283.888 934.858 289.419 931.6 292.616L918.059 305.901Z" fill="#5864FF"/>
<path fill-rule="evenodd" clip-rule="evenodd" d="M820.419 554.188L827.545 541.272L813.794 542.005L820.419 554.188ZM825.502 559.418C823.283 563.44 817.497 563.422 815.303 559.387L806.784 543.719C804.742 539.963 807.314 535.362 811.583 535.135L829.266 534.193C833.824 533.951 836.872 538.813 834.667 542.809L825.502 559.418Z" fill="#FFA134"/>
<path fill-rule="evenodd" clip-rule="evenodd" d="M1818.13 1202.56C1816.15 1199.25 1811.86 1198.18 1808.56 1200.17C1805.25 1202.15 1804.18 1206.44 1806.17 1209.74C1808.15 1213.04 1812.44 1214.11 1815.74 1212.13C1819.04 1210.15 1820.11 1205.86 1818.13 1202.56ZM1824.11 1198.96C1820.14 1192.36 1811.57 1190.22 1804.96 1194.18C1798.36 1198.15 1796.22 1206.73 1800.18 1213.33C1804.15 1219.94 1812.73 1222.08 1819.33 1218.11C1825.94 1214.14 1828.08 1205.57 1824.11 1198.96Z" fill="#FFA134"/>
<path fill-rule="evenodd" clip-rule="evenodd" d="M27.1298 59.5557C25.1458 56.2521 20.8594 55.1824 17.5558 57.1664C14.2522 59.1505 13.1825 63.4369 15.1665 66.7405C17.1505 70.044 21.437 71.1138 24.7405 69.1297C28.0441 67.1457 29.1138 62.8593 27.1298 59.5557ZM33.1115 55.9633C29.1434 49.3562 20.5706 47.2168 13.9634 51.1848C7.35627 55.1528 5.21684 63.7257 9.18487 70.3328C13.1529 76.94 21.7258 79.0794 28.3329 75.1114C34.9401 71.1434 37.0795 62.5705 33.1115 55.9633Z" fill="#FFA134"/>
<path fill-rule="evenodd" clip-rule="evenodd" d="M912.312 949.007C911.597 952.793 914.087 956.443 917.874 957.157C921.661 957.872 925.31 955.382 926.025 951.595C926.739 947.808 924.249 944.159 920.462 943.444C916.676 942.73 913.026 945.22 912.312 949.007ZM905.455 947.713C904.026 955.286 909.007 962.584 916.58 964.014C924.153 965.443 931.452 960.463 932.881 952.889C934.31 945.316 929.33 938.017 921.756 936.588C914.183 935.159 906.885 940.139 905.455 947.713Z" fill="#FFE34F"/>
<path fill-rule="evenodd" clip-rule="evenodd" d="M781.639 1004.82L768.089 998.988L770.16 1012.6L781.639 1004.82ZM786.348 999.25C790.567 1001.07 791.114 1006.83 787.312 1009.4L772.551 1019.41C769.012 1021.81 764.182 1019.7 763.539 1015.47L760.876 997.966C760.19 993.454 764.731 989.946 768.923 991.751L786.348 999.25Z" fill="#40D78F"/>
<path fill-rule="evenodd" clip-rule="evenodd" d="M1189.47 1145.29C1190.38 1147.7 1189.17 1150.38 1186.77 1151.29L1163.66 1160.07C1161.26 1160.99 1158.57 1159.78 1157.66 1157.38C1156.75 1154.98 1157.95 1152.29 1160.35 1151.38L1183.47 1142.6C1185.87 1141.69 1188.56 1142.89 1189.47 1145.29Z" fill="#FFA134"/>
<path fill-rule="evenodd" clip-rule="evenodd" d="M1621 1255.6L1622.5 1240.93L1610.14 1246.99L1621 1255.6ZM1627.73 1258.43C1627.26 1262.99 1621.93 1265.24 1618.33 1262.39L1604.36 1251.31C1601.01 1248.66 1601.57 1243.42 1605.41 1241.54L1621.31 1233.74C1625.41 1231.73 1630.12 1235.01 1629.66 1239.55L1627.73 1258.43Z" fill="#5864FF"/>
<path fill-rule="evenodd" clip-rule="evenodd" d="M930.079 1096.68C933.93 1096.83 937.173 1093.83 937.322 1089.98C937.472 1086.13 934.471 1082.89 930.621 1082.74C926.77 1082.59 923.527 1085.59 923.378 1089.44C923.228 1093.29 926.229 1096.53 930.079 1096.68ZM929.809 1103.65C937.51 1103.95 943.995 1097.95 944.294 1090.25C944.593 1082.55 938.593 1076.06 930.891 1075.76C923.19 1075.47 916.704 1081.47 916.405 1089.17C916.106 1096.87 922.107 1103.35 929.809 1103.65Z" fill="#40D78F"/>
<path fill-rule="evenodd" clip-rule="evenodd" d="M1295.36 1246.5C1292.83 1246.96 1290.41 1245.29 1289.95 1242.76L1285.53 1218.43C1285.07 1215.91 1286.74 1213.48 1289.27 1213.02C1291.8 1212.56 1294.22 1214.24 1294.68 1216.77L1299.1 1241.09C1299.56 1243.62 1297.89 1246.04 1295.36 1246.5Z" fill="#5864FF"/>
<path d="M1439.76 1287.14C1440.89 1289.34 1443.14 1290.87 1445.78 1290.94C1448.42 1291.02 1450.76 1289.61 1452.01 1287.48C1452.98 1285.82 1454.51 1284.21 1456.44 1284.26C1458.37 1284.31 1459.93 1285.94 1459.4 1287.8C1457.7 1293.79 1452.1 1298.1 1445.59 1297.92C1439.08 1297.74 1433.73 1293.12 1432.36 1287.04C1431.94 1285.17 1433.59 1283.62 1435.52 1283.68C1437.44 1283.73 1438.88 1285.43 1439.76 1287.14Z" fill="#FFE34F"/>
<path fill-rule="evenodd" clip-rule="evenodd" d="M1365.64 1087.73L1370.2 1101.76L1379.06 1091.22L1365.64 1087.73ZM1358.35 1087.87C1356.93 1083.5 1360.89 1079.29 1365.34 1080.44L1382.6 1084.93C1386.74 1086.01 1388.34 1091.03 1385.59 1094.3L1374.19 1107.86C1371.25 1111.35 1365.62 1110.25 1364.21 1105.91L1358.35 1087.87Z" fill="#40D78F"/>
<path fill-rule="evenodd" clip-rule="evenodd" d="M1189.47 1145.29C1190.38 1147.7 1189.17 1150.38 1186.77 1151.29L1163.66 1160.07C1161.26 1160.99 1158.57 1159.78 1157.66 1157.38C1156.75 1154.98 1157.95 1152.29 1160.35 1151.38L1183.47 1142.6C1185.87 1141.69 1188.56 1142.89 1189.47 1145.29Z" fill="#FFA134"/>
<path fill-rule="evenodd" clip-rule="evenodd" d="M930.079 1096.68C933.93 1096.83 937.173 1093.83 937.322 1089.98C937.472 1086.13 934.471 1082.89 930.621 1082.74C926.77 1082.59 923.527 1085.59 923.378 1089.44C923.228 1093.29 926.229 1096.53 930.079 1096.68ZM929.809 1103.65C937.51 1103.95 943.995 1097.95 944.294 1090.25C944.593 1082.55 938.593 1076.06 930.891 1075.76C923.19 1075.47 916.704 1081.47 916.405 1089.17C916.106 1096.87 922.107 1103.35 929.809 1103.65Z" fill="#40D78F"/>
<path fill-rule="evenodd" clip-rule="evenodd" d="M1295.36 1246.5C1292.83 1246.96 1290.41 1245.29 1289.95 1242.76L1285.53 1218.43C1285.07 1215.91 1286.74 1213.48 1289.27 1213.02C1291.8 1212.56 1294.22 1214.24 1294.68 1216.77L1299.1 1241.09C1299.56 1243.62 1297.89 1246.04 1295.36 1246.5Z" fill="#5864FF"/>
<path fill-rule="evenodd" clip-rule="evenodd" d="M1365.64 1087.73L1370.2 1101.76L1379.06 1091.22L1365.64 1087.73ZM1358.35 1087.87C1356.93 1083.5 1360.89 1079.29 1365.34 1080.44L1382.6 1084.93C1386.74 1086.01 1388.34 1091.03 1385.59 1094.3L1374.19 1107.86C1371.25 1111.35 1365.62 1110.25 1364.21 1105.91L1358.35 1087.87Z" fill="#40D78F"/>
<path fill-rule="evenodd" clip-rule="evenodd" d="M1470.77 1246.62L1458.63 1238.24L1457.99 1251.99L1470.77 1246.62ZM1476.48 1242.08C1480.26 1244.69 1479.67 1250.45 1475.43 1252.23L1458.99 1259.14C1455.05 1260.8 1450.73 1257.78 1450.93 1253.51L1451.76 1235.82C1451.97 1231.26 1457.12 1228.71 1460.87 1231.31L1476.48 1242.08Z" fill="#34B0FF"/>
<path fill-rule="evenodd" clip-rule="evenodd" d="M1720.67 1405.53C1722.89 1404.24 1725.74 1404.98 1727.03 1407.2L1739.52 1428.54C1740.82 1430.75 1740.07 1433.6 1737.86 1434.9C1735.64 1436.2 1732.79 1435.45 1731.49 1433.24L1719 1411.9C1717.71 1409.68 1718.45 1406.83 1720.67 1405.53Z" fill="#FFA134"/>
<path fill-rule="evenodd" clip-rule="evenodd" d="M1840.27 1387.42C1837.25 1389.82 1836.75 1394.21 1839.15 1397.23C1841.55 1400.24 1845.94 1400.74 1848.96 1398.34C1851.97 1395.94 1852.47 1391.55 1850.07 1388.54C1847.67 1385.52 1843.28 1385.02 1840.27 1387.42ZM1835.92 1381.96C1829.89 1386.76 1828.9 1395.54 1833.7 1401.57C1838.49 1407.6 1847.27 1408.6 1853.3 1403.8C1859.33 1399 1860.33 1390.22 1855.53 1384.19C1850.73 1378.16 1841.95 1377.16 1835.92 1381.96Z" fill="#34B0FF"/>
<path fill-rule="evenodd" clip-rule="evenodd" d="M1505.26 1379.15C1502.25 1381.55 1501.75 1385.94 1504.15 1388.95C1506.55 1391.97 1510.94 1392.47 1513.95 1390.07C1516.97 1387.67 1517.47 1383.28 1515.07 1380.26C1512.67 1377.25 1508.28 1376.75 1505.26 1379.15ZM1500.92 1373.69C1494.89 1378.49 1493.89 1387.27 1498.69 1393.3C1503.49 1399.33 1512.27 1400.33 1518.3 1395.53C1524.33 1390.73 1525.33 1381.95 1520.53 1375.92C1515.73 1369.89 1506.95 1368.89 1500.92 1373.69Z" fill="#34B0FF"/>
<path fill-rule="evenodd" clip-rule="evenodd" d="M1635 1356.17C1632.51 1353.22 1628.11 1352.85 1625.17 1355.33C1622.22 1357.81 1621.85 1362.22 1624.33 1365.16C1626.81 1368.11 1631.22 1368.48 1634.16 1366C1637.11 1363.51 1637.48 1359.11 1635 1356.17ZM1640.33 1351.67C1635.37 1345.78 1626.56 1345.03 1620.67 1350C1614.78 1354.96 1614.03 1363.77 1619 1369.66C1623.96 1375.55 1632.77 1376.3 1638.66 1371.33C1644.55 1366.37 1645.3 1357.56 1640.33 1351.67Z" fill="#FFE34F"/>
<path fill-rule="evenodd" clip-rule="evenodd" d="M2008.71 1194.73L2022.02 1201.08L2020.48 1187.4L2008.71 1194.73ZM2003.79 1200.11C1999.64 1198.13 1999.32 1192.36 2003.22 1189.93L2018.35 1180.5C2021.98 1178.24 2026.73 1180.54 2027.21 1184.78L2029.19 1202.38C2029.7 1206.92 2025.03 1210.25 2020.91 1208.28L2003.79 1200.11Z" fill="#5864FF"/>
<path d="M1911.68 1290.75C1912.44 1293.1 1914.42 1294.97 1917.02 1295.47C1919.61 1295.96 1922.14 1294.95 1923.71 1293.05C1924.94 1291.56 1926.71 1290.22 1928.6 1290.58C1930.5 1290.94 1931.78 1292.8 1930.96 1294.54C1928.32 1300.18 1922.11 1303.54 1915.71 1302.32C1909.31 1301.1 1904.77 1295.69 1904.39 1289.47C1904.27 1287.55 1906.15 1286.29 1908.04 1286.65C1909.93 1287.02 1911.09 1288.92 1911.68 1290.75Z" fill="#34B0FF"/>
<path fill-rule="evenodd" clip-rule="evenodd" d="M2026.55 921.138C2029.83 923.149 2034.13 922.114 2036.14 918.826C2038.15 915.539 2037.11 911.244 2033.83 909.233C2030.54 907.223 2026.24 908.258 2024.23 911.546C2022.22 914.833 2023.26 919.128 2026.55 921.138ZM2022.91 927.091C2029.48 931.112 2038.07 929.041 2042.09 922.466C2046.11 915.891 2044.04 907.301 2037.47 903.281C2030.89 899.26 2022.3 901.33 2018.28 907.905C2014.26 914.48 2016.33 923.07 2022.91 927.091Z" fill="#FFE34F"/>
<path fill-rule="evenodd" clip-rule="evenodd" d="M2043.63 632.58C2047.22 631.175 2048.99 627.126 2047.58 623.538C2046.17 619.95 2042.13 618.181 2038.54 619.586C2034.95 620.992 2033.18 625.04 2034.59 628.628C2035.99 632.216 2040.04 633.986 2043.63 632.58ZM2046.17 639.077C2053.35 636.266 2056.89 628.17 2054.08 620.994C2051.27 613.817 2043.17 610.279 2035.99 613.09C2028.82 615.9 2025.28 623.997 2028.09 631.173C2030.9 638.349 2039 641.888 2046.17 639.077Z" fill="#5864FF"/>
<path d="M2044.98 238.502C2043.57 240.524 2043.28 243.235 2044.45 245.602C2045.62 247.969 2047.96 249.377 2050.42 249.477C2052.35 249.556 2054.49 250.156 2055.35 251.882C2056.2 253.608 2055.49 255.752 2053.61 256.156C2047.52 257.459 2041.09 254.538 2038.2 248.7C2035.3 242.863 2036.87 235.977 2041.6 231.919C2043.06 230.664 2045.2 231.4 2046.05 233.126C2046.91 234.853 2046.09 236.922 2044.98 238.502Z" fill="#34B0FF"/>
<path fill-rule="evenodd" clip-rule="evenodd" d="M2013.16 1369.12C2015.26 1365.89 2014.35 1361.56 2011.12 1359.46C2007.89 1357.36 2003.56 1358.27 2001.46 1361.5C1999.36 1364.73 2000.27 1369.05 2003.5 1371.16C2006.73 1373.26 2011.05 1372.35 2013.16 1369.12ZM2019 1372.92C2023.21 1366.46 2021.38 1357.82 2014.92 1353.61C2008.46 1349.41 1999.82 1351.24 1995.61 1357.69C1991.41 1364.15 1993.24 1372.8 1999.69 1377C2006.15 1381.21 2014.8 1379.38 2019 1372.92Z" fill="#40D78F"/>
<path d="M183.92 78.7289C183.351 81.1295 184.075 83.7588 186.036 85.5278C187.997 87.2969 190.687 87.7465 193.016 86.9328C194.835 86.2974 197.05 86.0658 198.481 87.3563C199.912 88.6467 200.043 90.9007 198.439 91.9689C193.255 95.4224 186.201 95.0727 181.363 90.7092C176.525 86.3456 175.451 79.365 178.353 73.8529C179.251 72.148 181.506 72.0462 182.937 73.3367C184.368 74.6271 184.365 76.8542 183.92 78.7289Z" fill="#FFE34F"/>
</g>
<defs>
<clipPath id="clip0">
<rect width="2035" height="1475" fill="white"/>
</clipPath>
</defs>
</svg>
