<svg width="942" height="776" viewBox="0 0 942 776" fill="none" xmlns="http://www.w3.org/2000/svg">
<g clip-path="url(#clip0)">
<rect width="942" height="776" fill="white"/>
<circle cx="457.5" cy="377.5" r="334.5" fill="#FFA134" fill-opacity="0.2"/>
<g filter="url(#filter0_dd)">
<rect x="42" y="170" width="619" height="180" rx="25" fill="white"/>
</g>
<path d="M587 260.086C579.952 248.646 566.807 241 551.831 241C536.848 241 523.706 248.651 516.661 260.086C516.117 260.969 515.831 261.975 515.831 263C515.831 264.025 516.117 265.031 516.661 265.914C523.709 277.354 536.854 285 551.831 285C566.813 285 579.955 277.349 587 265.914C587.544 265.031 587.831 264.025 587.831 263C587.831 261.975 587.544 260.969 587 260.086ZM551.831 279.261C539.011 279.261 527.819 272.721 521.831 263C527.35 254.041 537.29 247.783 548.851 246.858C550.075 248.064 550.831 242.186 550.831 244C547.5 244 546.697 246 542.831 246C538.965 246 540.5 246.858 536.831 251.522L536.831 251.517C535.555 253.799 534.831 256.405 534.831 259.174C534.831 268.155 542.442 275.435 551.831 275.435C561.219 275.435 568.831 268.155 568.831 259.174C568.831 255.464 567.531 252.044 565.344 249.308C572.294 252.076 578.082 256.915 581.831 263C575.842 272.721 564.65 279.261 551.831 279.261Z" fill="#FFA134"/>
<g filter="url(#filter1_dd)">
<rect x="278" y="397" width="618" height="180" rx="23" fill="#FFA134"/>
</g>
<g filter="url(#filter2_d)">
<path fill-rule="evenodd" clip-rule="evenodd" d="M747.034 545.435C743.628 542.72 738.621 545.356 738.93 549.7L742.938 605.965C743.192 609.533 747.004 611.688 750.193 610.066L761.279 604.426C763.787 603.15 766.854 604.194 768.062 606.736L780.075 632.014C781.283 634.555 784.35 635.6 786.858 634.324L789.002 633.233C791.534 631.945 792.486 628.809 791.096 626.331L775.932 599.29C775.38 598.306 775.758 597.059 776.764 596.547L790.837 589.388C794.079 587.738 794.531 583.288 791.686 581.021L747.034 545.435Z" fill="white"/>
</g>
<path d="M120.843 244C119.042 244 117.714 245.344 117.809 246.879L118.188 255.133L111.362 250.718C110.888 250.43 110.413 250.334 109.939 250.334C108.422 250.334 107 251.582 107 253.406C107 254.365 107.569 255.325 108.517 255.805L115.628 259.548L108.517 263.291C107.569 263.771 107 264.827 107 265.786C107 267.514 108.612 268.762 109.845 268.762C110.319 268.762 110.888 268.57 111.267 268.282L118.188 263.867L117.809 272.121C117.714 273.656 119.042 275 120.654 275C122.266 275 123.688 273.656 123.593 272.121L123.214 263.867L129.946 268.282C130.42 268.57 130.894 268.666 131.368 268.666C132.98 268.666 134.308 267.322 134.308 265.69C134.308 264.731 133.833 263.771 132.885 263.291L125.774 259.548L132.885 255.805C133.833 255.325 134.308 254.365 134.308 253.31C134.308 251.39 132.696 250.334 131.463 250.334C130.894 250.334 130.42 250.526 129.946 250.814L123.214 255.133L123.593 246.879C123.688 245.344 122.266 244 120.843 244Z" fill="#FFBE72"/>
<path d="M154.085 244C152.284 244 150.956 245.344 151.051 246.879L151.43 255.133L144.603 250.718C144.129 250.43 143.655 250.334 143.181 250.334C141.664 250.334 140.242 251.582 140.242 253.406C140.242 254.365 140.811 255.325 141.759 255.805L148.87 259.548L141.759 263.291C140.811 263.771 140.242 264.827 140.242 265.786C140.242 267.514 141.854 268.762 143.086 268.762C143.56 268.762 144.129 268.57 144.509 268.282L151.43 263.867L151.051 272.121C150.956 273.656 152.284 275 153.896 275C155.507 275 156.93 273.656 156.835 272.121L156.456 263.867L163.188 268.282C163.662 268.57 164.136 268.666 164.61 268.666C166.222 268.666 167.549 267.322 167.549 265.69C167.549 264.731 167.075 263.771 166.127 263.291L159.016 259.548L166.127 255.805C167.075 255.325 167.549 254.365 167.549 253.31C167.549 251.39 165.937 250.334 164.705 250.334C164.136 250.334 163.662 250.526 163.188 250.814L156.456 255.133L156.835 246.879C156.93 245.344 155.507 244 154.085 244Z" fill="#FFBE72"/>
<path d="M187.327 244C185.525 244 184.198 245.344 184.293 246.879L184.672 255.133L177.845 250.718C177.371 250.43 176.897 250.334 176.423 250.334C174.906 250.334 173.484 251.582 173.484 253.406C173.484 254.365 174.052 255.325 175.001 255.805L182.112 259.548L175.001 263.291C174.052 263.771 173.484 264.827 173.484 265.786C173.484 267.514 175.095 268.762 176.328 268.762C176.802 268.762 177.371 268.57 177.75 268.282L184.672 263.867L184.293 272.121C184.198 273.656 185.525 275 187.137 275C188.749 275 190.171 273.656 190.077 272.121L189.697 263.867L196.429 268.282C196.904 268.57 197.378 268.666 197.852 268.666C199.464 268.666 200.791 267.322 200.791 265.69C200.791 264.731 200.317 263.771 199.369 263.291L192.257 259.548L199.369 255.805C200.317 255.325 200.791 254.365 200.791 253.31C200.791 251.39 199.179 250.334 197.947 250.334C197.378 250.334 196.904 250.526 196.429 250.814L189.697 255.133L190.077 246.879C190.171 245.344 188.749 244 187.327 244Z" fill="#FFBE72"/>
<path d="M220.569 244C218.767 244 217.44 245.344 217.535 246.879L217.914 255.133L211.087 250.718C210.613 250.43 210.139 250.334 209.665 250.334C208.148 250.334 206.725 251.582 206.725 253.406C206.725 254.365 207.294 255.325 208.242 255.805L215.354 259.548L208.242 263.291C207.294 263.771 206.725 264.827 206.725 265.786C206.725 267.514 208.337 268.762 209.57 268.762C210.044 268.762 210.613 268.57 210.992 268.282L217.914 263.867L217.535 272.121C217.44 273.656 218.767 275 220.379 275C221.991 275 223.413 273.656 223.318 272.121L222.939 263.867L229.671 268.282C230.145 268.57 230.619 268.666 231.094 268.666C232.705 268.666 234.033 267.322 234.033 265.69C234.033 264.731 233.559 263.771 232.611 263.291L225.499 259.548L232.611 255.805C233.559 255.325 234.033 254.365 234.033 253.31C234.033 251.39 232.421 250.334 231.188 250.334C230.619 250.334 230.145 250.526 229.671 250.814L222.939 255.133L223.318 246.879C223.413 245.344 221.991 244 220.569 244Z" fill="#FFBE72"/>
<path d="M253.811 244C252.009 244 250.682 245.344 250.776 246.879L251.156 255.133L244.329 250.718C243.855 250.43 243.381 250.334 242.906 250.334C241.389 250.334 239.967 251.582 239.967 253.406C239.967 254.365 240.536 255.325 241.484 255.805L248.596 259.548L241.484 263.291C240.536 263.771 239.967 264.827 239.967 265.786C239.967 267.514 241.579 268.762 242.812 268.762C243.286 268.762 243.855 268.57 244.234 268.282L251.156 263.867L250.776 272.121C250.682 273.656 252.009 275 253.621 275C255.233 275 256.655 273.656 256.56 272.121L256.181 263.867L262.913 268.282C263.387 268.57 263.861 268.666 264.335 268.666C265.947 268.666 267.275 267.322 267.275 265.69C267.275 264.731 266.801 263.771 265.852 263.291L258.741 259.548L265.852 255.805C266.801 255.325 267.275 254.365 267.275 253.31C267.275 251.39 265.663 250.334 264.43 250.334C263.861 250.334 263.387 250.526 262.913 250.814L256.181 255.133L256.56 246.879C256.655 245.344 255.233 244 253.811 244Z" fill="#FFBE72"/>
<path d="M287.052 244C285.251 244 283.923 245.344 284.018 246.879L284.397 255.133L277.571 250.718C277.096 250.43 276.622 250.334 276.148 250.334C274.631 250.334 273.209 251.582 273.209 253.406C273.209 254.365 273.778 255.325 274.726 255.805L281.837 259.548L274.726 263.291C273.778 263.771 273.209 264.827 273.209 265.786C273.209 267.514 274.821 268.762 276.053 268.762C276.528 268.762 277.096 268.57 277.476 268.282L284.397 263.867L284.018 272.121C283.923 273.656 285.251 275 286.863 275C288.475 275 289.897 273.656 289.802 272.121L289.423 263.867L296.155 268.282C296.629 268.57 297.103 268.666 297.577 268.666C299.189 268.666 300.516 267.322 300.516 265.69C300.516 264.731 300.042 263.771 299.094 263.291L291.983 259.548L299.094 255.805C300.042 255.325 300.516 254.365 300.516 253.31C300.516 251.39 298.905 250.334 297.672 250.334C297.103 250.334 296.629 250.526 296.155 250.814L289.423 255.133L289.802 246.879C289.897 245.344 288.475 244 287.052 244Z" fill="#FFBE72"/>
<path d="M320.294 244C318.493 244 317.165 245.344 317.26 246.879L317.639 255.133L310.812 250.718C310.338 250.43 309.864 250.334 309.39 250.334C307.873 250.334 306.451 251.582 306.451 253.406C306.451 254.365 307.02 255.325 307.968 255.805L315.079 259.548L307.968 263.291C307.02 263.771 306.451 264.827 306.451 265.786C306.451 267.514 308.063 268.762 309.295 268.762C309.769 268.762 310.338 268.57 310.717 268.282L317.639 263.867L317.26 272.121C317.165 273.656 318.493 275 320.104 275C321.716 275 323.139 273.656 323.044 272.121L322.665 263.867L329.397 268.282C329.871 268.57 330.345 268.666 330.819 268.666C332.431 268.666 333.758 267.322 333.758 265.69C333.758 264.731 333.284 263.771 332.336 263.291L325.225 259.548L332.336 255.805C333.284 255.325 333.758 254.365 333.758 253.31C333.758 251.39 332.146 250.334 330.914 250.334C330.345 250.334 329.871 250.526 329.397 250.814L322.665 255.133L323.044 246.879C323.139 245.344 321.716 244 320.294 244Z" fill="#FFBE72"/>
<path d="M353.536 244C351.734 244 350.407 245.344 350.502 246.879L350.881 255.133L344.054 250.718C343.58 250.43 343.106 250.334 342.632 250.334C341.115 250.334 339.692 251.582 339.692 253.406C339.692 254.365 340.261 255.325 341.21 255.805L348.321 259.548L341.21 263.291C340.261 263.771 339.692 264.827 339.692 265.786C339.692 267.514 341.304 268.762 342.537 268.762C343.011 268.762 343.58 268.57 343.959 268.282L350.881 263.867L350.502 272.121C350.407 273.656 351.734 275 353.346 275C354.958 275 356.38 273.656 356.286 272.121L355.906 263.867L362.638 268.282C363.112 268.57 363.587 268.666 364.061 268.666C365.673 268.666 367 267.322 367 265.69C367 264.731 366.526 263.771 365.578 263.291L358.466 259.548L365.578 255.805C366.526 255.325 367 254.365 367 253.31C367 251.39 365.388 250.334 364.155 250.334C363.587 250.334 363.112 250.526 362.638 250.814L355.906 255.133L356.286 246.879C356.38 245.344 354.958 244 353.536 244Z" fill="#FFBE72"/>
<path d="M488.29 495.86C488.29 478.43 461.48 483.4 461.48 475.98C461.48 473.18 463.86 471.29 468.13 471.29C471.56 471.29 475.2 472.13 478.42 473.95C479.26 474.44 480.1 474.65 480.94 474.65C483.32 474.65 485.91 472.83 485.91 470.17C485.91 469.33 485.63 468.49 485.07 467.79C482.48 464.36 474.36 462.61 469.04 462.61C458.05 462.61 451.33 469.05 451.33 476.82C451.33 494.39 478.21 488.72 478.21 496.98C478.21 499.64 475.55 502.16 470.09 502.16C465.54 502.16 461.55 500.69 458.4 498.52C457.63 497.96 456.65 497.75 455.74 497.75C453.36 497.75 451.05 499.71 451.05 502.37C451.05 503.21 451.33 504.05 451.82 504.75C454.41 508.6 462.81 510.84 469.6 510.84C482.2 510.84 488.29 504.4 488.29 495.86ZM499.182 461.98C496.312 461.98 493.862 464.29 493.862 467.23C493.862 470.17 496.312 472.55 499.182 472.55C502.122 472.55 504.502 470.17 504.502 467.23C504.502 464.29 502.122 461.98 499.182 461.98ZM503.662 506.01V480.11C503.662 477.73 501.702 475.77 499.322 475.77C496.732 475.77 494.772 477.73 494.772 480.11V506.01C494.772 508.46 496.732 510.42 499.182 510.42C501.702 510.42 503.662 508.46 503.662 506.01ZM544.607 507.69V480.18C544.607 477.73 542.647 475.77 540.197 475.77C537.607 475.77 535.647 477.73 535.647 480.18V480.53C532.917 477.1 529.277 475.35 525.217 475.35C516.677 475.35 510.307 481.51 510.307 492.57C510.307 503.84 516.747 509.79 525.217 509.79C529.347 509.79 532.987 507.83 535.647 504.47V507.9C535.647 514.55 530.607 516.44 526.337 516.44C523.327 516.44 520.667 515.81 518.287 514.34C517.657 513.99 517.027 513.85 516.397 513.85C514.437 513.85 512.687 515.39 512.687 517.56C512.687 518.26 512.897 518.96 513.247 519.52C515.277 522.67 522.207 523.72 526.337 523.72C534.667 523.72 544.607 520.57 544.607 507.69ZM535.647 498.03C534.177 500.2 530.957 501.88 528.017 501.88C522.977 501.88 519.477 498.38 519.477 492.57C519.477 486.76 522.977 483.26 528.017 483.26C530.957 483.26 534.177 484.87 535.647 487.11V498.03ZM585.135 506.01V486.13C585.135 479.55 581.565 475.35 574.145 475.35C568.615 475.35 564.485 478.01 562.315 480.6V480.11C562.315 477.73 560.355 475.77 557.975 475.77C555.385 475.77 553.425 477.73 553.425 480.11V506.01C553.425 508.46 555.385 510.42 557.835 510.42C560.355 510.42 562.315 508.46 562.315 506.01V487.25C563.785 485.22 566.515 483.26 570.015 483.26C573.795 483.26 576.245 484.87 576.245 489.56V506.01C576.245 508.46 578.205 510.42 580.655 510.42C583.175 510.42 585.135 508.46 585.135 506.01ZM654.222 491.31V467.86C654.222 465.13 651.982 462.89 649.252 462.89C646.312 462.89 644.072 465.13 644.072 467.86V491.03C644.072 497.54 640.362 502.02 633.152 502.02C625.942 502.02 622.162 497.54 622.162 491.03V467.86C622.162 465.13 619.922 462.89 617.192 462.89C614.322 462.89 612.082 465.13 612.082 467.86V491.38C612.082 502.86 618.942 510.84 633.152 510.84C647.362 510.84 654.222 502.93 654.222 491.31ZM697.51 493.06C697.51 481.79 691.21 475.35 682.53 475.35C678.4 475.35 674.69 477.17 672.1 480.46V480.11C672.1 477.73 670.14 475.77 667.76 475.77C665.17 475.77 663.21 477.73 663.21 480.11V518.96C663.21 521.34 665.17 523.3 667.62 523.3C670.14 523.3 672.1 521.34 672.1 518.96V505.66C674.83 509.16 678.54 510.84 682.53 510.84C691.21 510.84 697.51 504.33 697.51 493.06ZM688.27 493.06C688.27 498.94 684.84 502.93 679.73 502.93C676.86 502.93 673.57 501.18 672.1 499.08V487.11C673.57 484.94 676.86 483.26 679.73 483.26C684.84 483.26 688.27 487.25 688.27 493.06Z" fill="white"/>
<path fill-rule="evenodd" clip-rule="evenodd" d="M717.621 172.249C720.544 169.113 720.372 164.201 717.236 161.278C714.101 158.354 709.189 158.526 706.265 161.662C703.341 164.798 703.514 169.71 706.649 172.634C709.785 175.557 714.697 175.385 717.621 172.249ZM723.299 177.543C729.146 171.271 728.802 161.447 722.53 155.6C716.258 149.753 706.434 150.097 700.587 156.369C694.74 162.64 695.084 172.465 701.356 178.312C707.628 184.159 717.452 183.814 723.299 177.543Z" fill="#FFA134"/>
<path fill-rule="evenodd" clip-rule="evenodd" d="M865.408 214.43C862.355 211.419 857.44 211.452 854.43 214.504C851.419 217.556 851.452 222.471 854.504 225.482C857.556 228.493 862.471 228.46 865.482 225.408C868.493 222.355 868.46 217.44 865.408 214.43ZM870.859 208.903C864.755 202.882 854.925 202.948 848.903 209.052C842.882 215.156 842.948 224.986 849.052 231.008C855.156 237.03 864.986 236.963 871.008 230.859C877.03 224.755 876.963 214.925 870.859 208.903Z" fill="#FFA134"/>
<path fill-rule="evenodd" clip-rule="evenodd" d="M732.809 320.364L749.221 320.333L741.092 307.347L732.809 320.364ZM730.462 328.131C725.352 328.141 722.249 322.501 724.992 318.19L735.643 301.45C738.196 297.437 744.061 297.459 746.584 301.49L757.038 318.189C759.732 322.493 756.645 328.081 751.567 328.091L730.462 328.131Z" fill="#FFA134"/>
<path d="M769.374 240.31C771.264 242.301 774.153 243.226 776.994 242.474C779.835 241.723 781.89 239.491 782.548 236.826C783.063 234.745 784.194 232.54 786.266 231.992C788.339 231.444 790.518 232.693 790.538 234.837C790.602 241.767 785.987 248.126 778.979 249.979C771.972 251.832 764.816 248.587 761.446 242.531C760.403 240.658 761.68 238.495 763.752 237.947C765.825 237.399 767.898 238.756 769.374 240.31Z" fill="#FFA134"/>
<path d="M210.761 407.682C213.133 410.179 216.758 411.339 220.323 410.397C223.887 409.454 226.465 406.653 227.291 403.31C227.937 400.699 229.356 397.933 231.956 397.245C234.556 396.558 237.291 398.125 237.316 400.814C237.396 409.509 231.605 417.487 222.813 419.813C214.021 422.138 205.042 418.066 200.814 410.468C199.506 408.118 201.108 405.404 203.708 404.716C206.308 404.029 208.909 405.731 210.761 407.682Z" fill="#FFA134"/>
<path fill-rule="evenodd" clip-rule="evenodd" d="M814.915 149.762C813.409 147.333 814.157 144.143 816.586 142.637L839.964 128.143C842.393 126.637 845.584 127.385 847.09 129.814C848.596 132.243 847.847 135.434 845.418 136.94L822.04 151.434C819.611 152.94 816.421 152.191 814.915 149.762Z" fill="#FFA134"/>
<path fill-rule="evenodd" clip-rule="evenodd" d="M201.528 476.869C203.789 479.167 203.759 482.862 201.461 485.123L179.349 506.879C177.051 509.139 173.356 509.109 171.095 506.812C168.835 504.514 168.865 500.819 171.162 498.558L193.275 476.802C195.572 474.542 199.267 474.572 201.528 476.869Z" fill="#FFA134"/>
<path fill-rule="evenodd" clip-rule="evenodd" d="M76.0534 511.617L59.1365 519.126L73.4387 528.819L76.0534 511.617ZM74.9364 502.535C80.2037 500.197 85.9747 504.601 85.1088 510.299L81.7464 532.421C80.9405 537.723 74.8806 540.372 70.4408 537.363L52.0488 524.898C47.3088 521.685 47.9483 514.514 53.182 512.191L74.9364 502.535Z" fill="#FFA134"/>
<path fill-rule="evenodd" clip-rule="evenodd" d="M153.505 606.541C157.629 609.063 163.018 607.764 165.541 603.639C168.063 599.514 166.764 594.126 162.639 591.603C158.515 589.081 153.126 590.38 150.603 594.505C148.081 598.629 149.38 604.018 153.505 606.541ZM148.937 614.009C157.187 619.054 167.964 616.456 173.009 608.207C178.054 599.957 175.456 589.18 167.207 584.135C158.957 579.09 148.18 581.688 143.135 589.937C138.09 598.187 140.688 608.964 148.937 614.009Z" fill="#FFA134"/>
<path fill-rule="evenodd" clip-rule="evenodd" d="M115.691 409.541C119.816 412.063 125.205 410.764 127.727 406.639C130.25 402.514 128.951 397.126 124.826 394.603C120.701 392.081 115.312 393.38 112.79 397.505C110.267 401.629 111.566 407.018 115.691 409.541ZM111.124 417.009C119.373 422.054 130.151 419.456 135.196 411.207C140.241 402.957 137.643 392.18 129.393 387.135C121.144 382.09 110.366 384.688 105.321 392.937C100.276 401.187 102.874 411.964 111.124 417.009Z" fill="#FFA134"/>
</g>
<defs>
<filter id="filter0_dd" x="-8" y="140" width="719" height="280" filterUnits="userSpaceOnUse" color-interpolation-filters="sRGB">
<feFlood flood-opacity="0" result="BackgroundImageFix"/>
<feColorMatrix in="SourceAlpha" type="matrix" values="0 0 0 0 0 0 0 0 0 0 0 0 0 0 0 0 0 0 127 0"/>
<feOffset dy="20"/>
<feGaussianBlur stdDeviation="25"/>
<feColorMatrix type="matrix" values="0 0 0 0 1 0 0 0 0 0.631199 0 0 0 0 0.204167 0 0 0 0.2 0"/>
<feBlend mode="normal" in2="BackgroundImageFix" result="effect1_dropShadow"/>
<feColorMatrix in="SourceAlpha" type="matrix" values="0 0 0 0 0 0 0 0 0 0 0 0 0 0 0 0 0 0 127 0"/>
<feOffset dy="10"/>
<feGaussianBlur stdDeviation="10"/>
<feColorMatrix type="matrix" values="0 0 0 0 1 0 0 0 0 0.631199 0 0 0 0 0.204167 0 0 0 0.2 0"/>
<feBlend mode="normal" in2="effect1_dropShadow" result="effect2_dropShadow"/>
<feBlend mode="normal" in="SourceGraphic" in2="effect2_dropShadow" result="shape"/>
</filter>
<filter id="filter1_dd" x="228" y="367" width="718" height="280" filterUnits="userSpaceOnUse" color-interpolation-filters="sRGB">
<feFlood flood-opacity="0" result="BackgroundImageFix"/>
<feColorMatrix in="SourceAlpha" type="matrix" values="0 0 0 0 0 0 0 0 0 0 0 0 0 0 0 0 0 0 127 0"/>
<feOffset dy="20"/>
<feGaussianBlur stdDeviation="25"/>
<feColorMatrix type="matrix" values="0 0 0 0 1 0 0 0 0 0.631199 0 0 0 0 0.204167 0 0 0 0.2 0"/>
<feBlend mode="normal" in2="BackgroundImageFix" result="effect1_dropShadow"/>
<feColorMatrix in="SourceAlpha" type="matrix" values="0 0 0 0 0 0 0 0 0 0 0 0 0 0 0 0 0 0 127 0"/>
<feOffset dy="10"/>
<feGaussianBlur stdDeviation="10"/>
<feColorMatrix type="matrix" values="0 0 0 0 1 0 0 0 0 0.631199 0 0 0 0 0.204167 0 0 0 0.2 0"/>
<feBlend mode="normal" in2="effect1_dropShadow" result="effect2_dropShadow"/>
<feBlend mode="normal" in="SourceGraphic" in2="effect2_dropShadow" result="shape"/>
</filter>
<filter id="filter2_d" x="724.917" y="534.333" width="82.6538" height="118.536" filterUnits="userSpaceOnUse" color-interpolation-filters="sRGB">
<feFlood flood-opacity="0" result="BackgroundImageFix"/>
<feColorMatrix in="SourceAlpha" type="matrix" values="0 0 0 0 0 0 0 0 0 0 0 0 0 0 0 0 0 0 127 0"/>
<feOffset dy="4"/>
<feGaussianBlur stdDeviation="7"/>
<feColorMatrix type="matrix" values="0 0 0 0 0 0 0 0 0 0 0 0 0 0 0 0 0 0 0.21 0"/>
<feBlend mode="normal" in2="BackgroundImageFix" result="effect1_dropShadow"/>
<feBlend mode="normal" in="SourceGraphic" in2="effect1_dropShadow" result="shape"/>
</filter>
<clipPath id="clip0">
<rect width="942" height="776" fill="white"/>
</clipPath>
</defs>
</svg>
