<svg width="942" height="776" viewBox="0 0 942 776" fill="none" xmlns="http://www.w3.org/2000/svg">
<rect width="942" height="776" fill="white"/>
<circle cx="463.5" cy="380.5" r="334.5" fill="#86D0FF" fill-opacity="0.3"/>
<path fill-rule="evenodd" clip-rule="evenodd" d="M201.983 206.572C197.757 205.849 194.917 201.838 195.64 197.612C196.362 193.386 200.374 190.546 204.6 191.268C208.826 191.991 211.666 196.002 210.943 200.228C210.22 204.454 206.209 207.294 201.983 206.572ZM200.674 214.223C192.223 212.778 186.543 204.755 187.988 196.303C189.433 187.851 197.456 182.171 205.908 183.617C214.36 185.062 220.04 193.085 218.595 201.537C217.149 209.989 209.126 215.669 200.674 214.223Z" fill="#94D5FF"/>
<path fill-rule="evenodd" clip-rule="evenodd" d="M300.989 294.941L287.915 304.863L286.511 289.607L300.989 294.941ZM307.563 299.697C311.634 296.608 310.684 290.241 305.889 288.474L287.272 281.614C282.809 279.969 278.158 283.541 278.593 288.276L280.398 307.895C280.864 312.951 286.706 315.525 290.751 312.455L307.563 299.697Z" fill="#94D5FF"/>
<path fill-rule="evenodd" clip-rule="evenodd" d="M323.989 132.941L310.915 142.862L309.511 127.606L323.989 132.941ZM330.563 137.697C334.634 134.608 333.684 128.24 328.889 126.474L310.272 119.613C305.809 117.969 301.158 121.54 301.593 126.276L303.398 145.895C303.864 150.951 309.706 153.524 313.751 150.455L330.563 137.697Z" fill="#94D5FF"/>
<path d="M204.064 315.771C203.768 318.5 202.029 320.987 199.314 322.111C196.599 323.235 193.612 322.704 191.473 320.984C189.803 319.64 187.567 318.572 185.586 319.392C183.606 320.212 182.629 322.527 183.912 324.244C188.061 329.795 195.586 332.056 202.284 329.283C208.981 326.511 212.706 319.592 211.717 312.733C211.411 310.611 209.084 309.665 207.104 310.485C205.123 311.304 204.296 313.64 204.064 315.771Z" fill="#94D5FF"/>
<path fill-rule="evenodd" clip-rule="evenodd" d="M274.915 221.762C273.409 219.333 274.157 216.143 276.586 214.637L299.964 200.143C302.393 198.637 305.584 199.385 307.09 201.814C308.596 204.243 307.847 207.434 305.418 208.94L282.04 223.434C279.611 224.94 276.421 224.191 274.915 221.762Z" fill="#94D5FF"/>
<path d="M488.845 480.345C525.381 567.797 484.107 668.309 396.655 704.845C309.203 741.381 208.691 700.107 172.155 612.655C135.619 525.204 176.893 424.691 264.345 388.155C351.797 351.619 452.309 392.894 488.845 480.345Z" fill="#35B1FF"/>
<path d="M294.334 567.565C296.004 575.025 291.311 582.426 283.851 584.096C276.391 585.766 268.989 581.072 267.319 573.612C265.649 566.153 270.343 558.751 277.803 557.081C285.263 555.411 292.664 560.105 294.334 567.565Z" fill="#DBF1FF"/>
<path d="M402.396 543.375C404.066 550.835 399.372 558.237 391.912 559.907C384.452 561.577 377.051 556.883 375.381 549.423C373.711 541.963 378.404 534.562 385.864 532.892C393.324 531.222 400.726 535.915 402.396 543.375Z" fill="#DBF1FF"/>
<path fill-rule="evenodd" clip-rule="evenodd" d="M316.324 597.918C319.088 595.725 323.107 596.188 325.299 598.953C327.938 602.279 335.711 608.2 345.014 606.118C354.316 604.035 358.823 595.365 359.792 591.231C360.597 587.796 364.034 585.663 367.469 586.468C370.905 587.273 373.037 590.71 372.232 594.146C370.683 600.759 363.823 615 347.805 618.586C331.787 622.172 319.51 612.214 315.289 606.893C313.096 604.129 313.56 600.11 316.324 597.918Z" fill="#DBF1FF"/>
<path d="M582.169 562.707C582.169 541.33 600.057 524 622.123 524C644.189 524 662.077 541.33 662.077 562.707V619.478C662.077 640.855 644.189 658.185 622.123 658.185C600.057 658.185 582.169 640.855 582.169 619.478V562.707Z" fill="#94D5FF"/>
<path fill-rule="evenodd" clip-rule="evenodd" d="M558.658 617.666C565.048 616.519 571.17 620.706 572.332 627.018C574.894 640.942 580.739 651.469 588.819 658.495C596.83 665.461 607.916 669.757 622.5 669.757C637.084 669.757 648.17 665.461 656.181 658.495C664.261 651.469 670.106 640.942 672.668 627.018C673.83 620.706 679.952 616.519 686.342 617.666C692.732 618.814 696.97 624.862 695.808 631.174C692.491 649.198 684.515 664.81 671.72 675.936C661.519 684.807 648.814 690.334 634.26 692.242V712.906C634.26 719.322 628.995 724.523 622.5 724.523C616.005 724.523 610.74 719.322 610.74 712.906V692.242C596.186 690.334 583.481 684.807 573.28 675.936C560.485 664.81 552.509 649.198 549.192 631.174C548.03 624.862 552.268 618.814 558.658 617.666Z" fill="#94D5FF"/>
<path fill-rule="evenodd" clip-rule="evenodd" d="M408.87 165.314L426.325 159.158L422.583 176.026L408.87 165.314ZM403.446 157.944C398.012 159.861 396.84 167.026 401.382 170.573L419.015 184.348C423.242 187.65 429.467 185.415 430.628 180.179L435.441 158.488C436.682 152.898 431.293 148.123 425.893 150.028L403.446 157.944Z" fill="#94D5FF"/>
<path fill-rule="evenodd" clip-rule="evenodd" d="M457.934 92.779C456.667 97.445 451.857 100.201 447.191 98.9336C442.525 97.6667 439.77 92.8571 441.036 88.1911C442.303 83.5251 447.113 80.7696 451.779 82.0365C456.445 83.3034 459.201 88.113 457.934 92.779ZM466.382 95.073C463.848 104.405 454.229 109.916 444.897 107.382C435.565 104.848 430.054 95.2292 432.588 85.8972C435.122 76.5651 444.741 71.0541 454.073 73.5879C463.405 76.1218 468.916 85.7409 466.382 95.073Z" fill="#94D5FF"/>
<path fill-rule="evenodd" clip-rule="evenodd" d="M534.075 135.318C534.009 138.54 536.568 141.206 539.791 141.272L570.805 141.907C574.027 141.973 576.693 139.414 576.759 136.192C576.825 132.969 574.266 130.303 571.044 130.237L540.03 129.602C536.807 129.536 534.141 132.095 534.075 135.318Z" fill="#94D5FF"/>
<path d="M412.336 246.86C412.327 250.305 410.488 253.637 407.249 255.399C404.01 257.161 400.213 256.895 397.316 255.031C395.055 253.576 392.124 252.54 389.761 253.825C387.399 255.111 386.487 258.127 388.315 260.1C394.226 266.477 403.915 268.301 411.903 263.955C419.892 259.609 423.624 250.484 421.481 242.057C420.819 239.45 417.791 238.577 415.428 239.862C413.065 241.147 412.343 244.171 412.336 246.86Z" fill="#94D5FF"/>
<g filter="url(#filter0_dd)">
<path d="M746.444 169L416.432 179.883C399.072 179.883 385 193.979 385 211.368L399.507 387.018C399.507 404.406 413.579 418.502 430.939 418.502H536.718C537.927 437.676 528.256 462.702 506.495 474.812C529.465 471.179 543.342 462.41 556.06 448.171C566.336 436.667 571.776 427.585 574.799 418.502L723.475 407.62C740.834 407.62 754.906 393.523 754.906 376.135L777.875 200.485C777.875 183.096 763.803 169 746.444 169Z" fill="#E9F6FF"/>
</g>
<line x1="456.003" y1="245.988" x2="708.602" y2="238.138" stroke="#35B1FF" stroke-width="15" stroke-linecap="round" stroke-linejoin="round"/>
<line x1="457.626" y1="298.201" x2="653.661" y2="292.109" stroke="#35B1FF" stroke-width="15" stroke-linecap="round" stroke-linejoin="round"/>
<line x1="459.248" y1="350.415" x2="624.826" y2="345.269" stroke="#35B1FF" stroke-width="15" stroke-linecap="round" stroke-linejoin="round"/>
<path d="M570.419 533.165C570.881 528.205 573.434 518.117 581.646 513.304C589.857 508.491 598.499 507.835 601.582 508.625" stroke="#94D5FF" stroke-width="10" stroke-linecap="round" stroke-linejoin="round"/>
<path d="M559.707 508.025C560.014 504.682 564.515 497.598 570.019 494.33C575.522 491.061 580.322 490.184 582.389 490.707" stroke="#94D5FF" stroke-width="10" stroke-linecap="round" stroke-linejoin="round"/>
<defs>
<filter id="filter0_dd" x="335" y="139" width="492.875" height="405.812" filterUnits="userSpaceOnUse" color-interpolation-filters="sRGB">
<feFlood flood-opacity="0" result="BackgroundImageFix"/>
<feColorMatrix in="SourceAlpha" type="matrix" values="0 0 0 0 0 0 0 0 0 0 0 0 0 0 0 0 0 0 127 0"/>
<feOffset dy="20"/>
<feGaussianBlur stdDeviation="25"/>
<feColorMatrix type="matrix" values="0 0 0 0 0 0 0 0 0 0 0 0 0 0 0 0 0 0 0.07 0"/>
<feBlend mode="normal" in2="BackgroundImageFix" result="effect1_dropShadow"/>
<feColorMatrix in="SourceAlpha" type="matrix" values="0 0 0 0 0 0 0 0 0 0 0 0 0 0 0 0 0 0 127 0"/>
<feOffset dy="10"/>
<feGaussianBlur stdDeviation="10"/>
<feColorMatrix type="matrix" values="0 0 0 0 0.144965 0 0 0 0 0.431417 0 0 0 0 0.695833 0 0 0 0.06 0"/>
<feBlend mode="normal" in2="effect1_dropShadow" result="effect2_dropShadow"/>
<feBlend mode="normal" in="SourceGraphic" in2="effect2_dropShadow" result="shape"/>
</filter>
</defs>
</svg>
