<svg width="942" height="776" viewBox="0 0 942 776" fill="none" xmlns="http://www.w3.org/2000/svg">
<rect width="942" height="776" fill="white"/>
<circle cx="463.5" cy="380.5" r="334.5" fill="#5864FF" fill-opacity="0.1"/>
<path d="M259.601 675.511L240.994 631.752C240.798 631.291 240.974 630.756 241.405 630.501L354.914 563.31C355.426 563.007 356.088 563.215 356.334 563.757L380.008 615.929C380.167 616.281 380.119 616.684 379.867 616.977C370.732 627.622 347.818 649.35 327.804 659.101C300.335 672.485 274.811 674.191 260.653 676.113C260.204 676.174 259.778 675.927 259.601 675.511Z" fill="#5864FF"/>
<path d="M304.848 623.913L199.997 640.248C199.044 640.396 198.454 639.243 199.131 638.557L281.967 554.694C282.127 554.532 282.338 554.43 282.564 554.404L383.435 542.778C384.375 542.67 384.926 543.807 384.258 544.477L305.403 623.631C305.253 623.781 305.058 623.88 304.848 623.913Z" fill="#B7BCFF"/>
<path fill-rule="evenodd" clip-rule="evenodd" d="M368.473 547.262C370.004 546.614 371.786 547.334 372.454 548.87L391.377 592.398C392.045 593.934 391.345 595.704 389.814 596.352C388.283 596.999 386.501 596.279 385.833 594.743L366.91 551.215C366.242 549.679 366.942 547.909 368.473 547.262Z" fill="#B7BCFF"/>
<path d="M782.238 114.909C783.226 110.603 780.536 106.311 776.23 105.323L769.071 103.68C764.765 102.692 760.473 105.382 759.485 109.688L737.27 206.504L760.024 211.725L782.238 114.909Z" fill="#6D78FF"/>
<path opacity="0.5" d="M737.403 111.1C738.391 106.794 735.701 102.502 731.395 101.514L724.236 99.871C719.929 98.8829 715.637 101.573 714.649 105.879L693.847 196.541L716.6 201.762L737.403 111.1Z" fill="#B2B8FF"/>
<path opacity="0.5" d="M690.45 116.519C691.438 112.213 688.748 107.921 684.441 106.933L677.283 105.29C672.976 104.302 668.684 106.992 667.696 111.298L650.424 186.576L673.177 191.796L690.45 116.519Z" fill="#D0D4FF"/>
<path opacity="0.5" d="M644.908 115.788C645.896 111.481 643.206 107.189 638.9 106.201L631.741 104.559C627.435 103.57 623.143 106.26 622.155 110.567L607 176.614L629.754 181.834L644.908 115.788Z" fill="#D0D4FF"/>
<path fill-rule="evenodd" clip-rule="evenodd" d="M288.689 98.9764C284.761 97.2587 282.969 92.6819 284.686 88.7538C286.404 84.8257 290.981 83.0337 294.909 84.7513C298.837 86.469 300.629 91.0458 298.912 94.9739C297.194 98.902 292.617 100.694 288.689 98.9764ZM285.579 106.089C277.723 102.654 274.139 93.5 277.574 85.6438C281.009 77.7875 290.163 74.2035 298.019 77.6388C305.875 81.0741 309.459 90.2277 306.024 98.0839C302.589 105.94 293.435 109.524 285.579 106.089Z" fill="#B3B8FF"/>
<path fill-rule="evenodd" clip-rule="evenodd" d="M363.538 208.561L348.462 215.047L350.769 199.902L363.538 208.561ZM368.776 214.759C373.47 212.739 374.079 206.33 369.85 203.462L353.429 192.326C349.493 189.657 344.119 192.005 343.403 196.706L340.437 216.183C339.673 221.203 344.725 225.106 349.389 223.099L368.776 214.759Z" fill="#B3B8FF"/>
<path fill-rule="evenodd" clip-rule="evenodd" d="M424.821 56.8459L409.745 63.3321L412.051 48.1862L424.821 56.8459ZM430.059 63.0432C434.753 61.0237 435.362 54.615 431.133 51.7469L414.712 40.6109C410.775 37.9417 405.401 40.2895 404.686 44.9911L401.72 64.4681C400.956 69.4877 406.008 73.3908 410.672 71.3842L430.059 63.0432Z" fill="#B3B8FF"/>
<path d="M264.449 205.472C263.505 208.05 261.22 210.045 258.314 210.483C255.408 210.922 252.636 209.688 250.974 207.504C249.676 205.798 247.762 204.224 245.643 204.543C243.523 204.863 242.018 206.875 242.851 208.85C245.543 215.236 252.304 219.24 259.471 218.159C266.639 217.079 271.918 211.259 272.608 204.363C272.821 202.23 270.79 200.752 268.671 201.071C266.551 201.391 265.187 203.459 264.449 205.472Z" fill="#B3B8FF"/>
<path fill-rule="evenodd" clip-rule="evenodd" d="M355.828 131.259C354.95 128.539 356.444 125.623 359.164 124.745L385.341 116.298C388.061 115.42 390.978 116.914 391.856 119.634C392.733 122.354 391.24 125.271 388.52 126.148L362.342 134.595C359.622 135.473 356.706 133.979 355.828 131.259Z" fill="#B3B8FF"/>
<path fill-rule="evenodd" clip-rule="evenodd" d="M499.427 108.681L517.85 106.903L510.161 122.376L499.427 108.681ZM495.934 100.223C490.198 100.777 487.338 107.45 490.893 111.985L504.697 129.596C508.005 133.817 514.585 133.145 516.972 128.342L526.859 108.445C529.408 103.317 525.325 97.3869 519.626 97.9369L495.934 100.223Z" fill="#B3B8FF"/>
<path fill-rule="evenodd" clip-rule="evenodd" d="M564.493 50.073C562.142 54.2974 556.81 55.8155 552.586 53.4637C548.362 51.1119 546.844 45.7808 549.195 41.5563C551.547 37.3319 556.878 35.8139 561.103 38.1657C565.327 40.5175 566.845 45.8486 564.493 50.073ZM572.142 54.3313C567.439 62.7802 556.777 65.8163 548.328 61.1127C539.879 56.4091 536.843 45.7469 541.546 37.298C546.25 28.8492 556.912 25.813 565.361 30.5167C573.81 35.2203 576.846 45.8825 572.142 54.3313Z" fill="#B3B8FF"/>
<path fill-rule="evenodd" clip-rule="evenodd" d="M209.369 136.757C208.53 139.869 210.372 143.072 213.485 143.911L243.436 151.986C246.548 152.825 249.751 150.982 250.59 147.87C251.429 144.757 249.586 141.554 246.474 140.715L216.523 132.641C213.411 131.802 210.208 133.645 209.369 136.757Z" fill="#B3B8FF"/>
<path d="M483.181 188.668C482.344 192.009 479.757 194.802 476.189 195.733C472.622 196.664 469 195.493 466.637 192.987C464.791 191.031 462.196 189.32 459.593 190C456.991 190.679 455.38 193.388 456.681 195.742C460.885 203.354 469.85 207.454 478.65 205.157C487.449 202.859 493.266 194.899 493.213 186.204C493.196 183.515 490.467 181.939 487.865 182.618C485.262 183.298 483.834 186.059 483.181 188.668Z" fill="#B3B8FF"/>
<path fill-rule="evenodd" clip-rule="evenodd" d="M553.689 599.976C549.761 598.259 547.969 593.682 549.686 589.754C551.404 585.826 555.981 584.034 559.909 585.751C563.837 587.469 565.629 592.046 563.912 595.974C562.194 599.902 557.617 601.694 553.689 599.976ZM550.579 607.089C542.723 603.654 539.139 594.5 542.574 586.644C546.009 578.787 555.163 575.204 563.019 578.639C570.875 582.074 574.459 591.228 571.024 599.084C567.589 606.94 558.435 610.524 550.579 607.089Z" fill="#B3B8FF"/>
<path fill-rule="evenodd" clip-rule="evenodd" d="M655.076 623.258L640 629.744L642.307 614.598L655.076 623.258ZM660.314 629.455C665.008 627.436 665.617 621.027 661.388 618.159L644.967 607.023C641.031 604.354 635.657 606.702 634.941 611.403L631.975 630.88C631.211 635.9 636.263 639.803 640.927 637.796L660.314 629.455Z" fill="#B3B8FF"/>
<path d="M546.644 680.979C545.7 683.557 543.415 685.553 540.509 685.991C537.603 686.429 534.831 685.196 533.169 683.011C531.871 681.305 529.958 679.731 527.838 680.051C525.718 680.37 524.214 682.382 525.046 684.357C527.738 690.743 534.499 694.747 541.667 693.667C548.834 692.586 554.114 686.767 554.803 679.871C555.016 677.738 552.986 676.259 550.866 676.579C548.746 676.898 547.382 678.967 546.644 680.979Z" fill="#B3B8FF"/>
<path fill-rule="evenodd" clip-rule="evenodd" d="M616.541 692.388C615.663 689.668 617.157 686.751 619.877 685.873L646.054 677.427C648.774 676.549 651.691 678.042 652.568 680.762C653.446 683.482 651.953 686.399 649.233 687.277L623.055 695.724C620.335 696.601 617.419 695.108 616.541 692.388Z" fill="#B3B8FF"/>
<path fill-rule="evenodd" clip-rule="evenodd" d="M474.369 637.757C473.53 640.869 475.372 644.072 478.485 644.911L508.436 652.986C511.548 653.825 514.751 651.982 515.59 648.87C516.429 645.757 514.586 642.554 511.474 641.715L481.523 633.641C478.411 632.802 475.208 634.645 474.369 637.757Z" fill="#B3B8FF"/>
<path d="M719.299 572.28C718.462 575.621 715.875 578.413 712.308 579.345C708.741 580.276 705.119 579.104 702.756 576.599C700.91 574.643 698.314 572.932 695.712 573.612C693.11 574.291 691.499 577 692.799 579.354C697.004 586.966 705.969 591.066 714.769 588.769C723.568 586.471 729.385 578.511 729.332 569.816C729.315 567.127 726.586 565.551 723.983 566.23C721.381 566.91 719.953 569.671 719.299 572.28Z" fill="#B3B8FF"/>
<g filter="url(#filter0_d)">
<g filter="url(#filter1_dd)">
<path d="M636.37 282.182C636.37 269.931 646.263 260 658.468 260H874.538C886.743 260 896.636 269.931 896.636 282.182V481.818C896.636 494.069 886.743 504 874.538 504H658.468C646.263 504 636.37 494.069 636.37 481.818V282.182Z" fill="#FEFEFE"/>
</g>
<path d="M687.871 377.97C687.871 366.783 670.826 370.467 670.826 364.267C670.826 361.706 673.044 359.954 676.305 359.954C678.827 359.954 681.349 360.717 683.479 362.335C683.827 362.604 684.262 362.739 684.653 362.739C685.74 362.739 686.697 361.796 686.697 360.672C686.697 360.178 686.523 359.639 686.132 359.28C683.958 357.213 680.262 356.045 676.653 356.045C670.652 356.045 666.391 359.639 666.391 364.581C666.391 375.409 683.436 371.32 683.436 378.419C683.436 380.53 681.784 383.091 677.088 383.091C673.914 383.091 671.218 381.788 669.218 380.036C668.87 379.767 668.391 379.632 668 379.632C666.826 379.632 666 380.71 666 381.833C666 382.328 666.174 382.822 666.522 383.226C668.783 385.517 672.653 387 676.914 387C684.74 387 687.871 382.642 687.871 377.97Z" fill="#6D78FF"/>
<path d="M712.214 374.87C712.214 374.016 711.996 373.072 711.822 372.354C710.605 367.501 707.126 364.222 702.039 364.222C695.952 364.222 691.56 369.299 691.56 375.588C691.56 382.417 696.126 387 702.387 387C705.039 387 710.431 385.787 710.431 383.361C710.431 382.372 709.561 381.743 708.866 381.743C708.561 381.743 708.257 381.833 707.996 381.968C706.474 383.136 704.561 383.765 702.778 383.765C698.517 383.765 695.908 380.62 695.604 376.891H710.214C711.301 376.891 712.214 375.948 712.214 374.87ZM708.474 374.061H695.604C695.778 371.051 697.821 367.457 701.996 367.457C706.474 367.457 708.387 371.141 708.474 374.061Z" fill="#6D78FF"/>
<path d="M721.022 384.754V358.157C721.022 357.123 720.152 356.225 719.152 356.225C718.022 356.225 717.152 357.123 717.152 358.157V384.754C717.152 385.832 718.022 386.73 719.065 386.73C720.152 386.73 721.022 385.832 721.022 384.754Z" fill="#6D78FF"/>
<path d="M739.04 358.246C739.04 356.719 736.518 356.045 734.649 356.045C730.779 356.045 728.3 358.741 728.3 363.233V364.761H726.213C725.3 364.761 724.561 365.525 724.561 366.468C724.561 367.501 725.3 368.265 726.213 368.265H728.3V384.754C728.3 385.832 729.17 386.73 730.214 386.73C731.301 386.73 732.17 385.832 732.17 384.754V368.265H735.04C735.953 368.265 736.692 367.501 736.692 366.558C736.692 365.525 735.953 364.761 735.04 364.761H732.17V363.233C732.17 360.672 733.301 359.28 735.301 359.28C736.214 359.28 736.866 359.819 737.562 359.819C738.301 359.819 739.04 359.235 739.04 358.246Z" fill="#6D78FF"/>
<path d="M765.249 356C756.814 356 750.161 362.29 750.161 371.5C750.161 380.71 756.814 387 765.249 387C769.771 387 772.902 385.068 775.163 382.552C775.511 382.193 775.684 381.699 775.684 381.159C775.684 380.081 774.815 379.093 773.684 379.093C773.119 379.093 772.51 379.362 772.162 379.812C770.38 381.878 767.814 383.046 765.249 383.046C759.162 383.046 754.64 378.194 754.64 371.5C754.64 364.761 759.162 359.954 765.249 359.954C767.771 359.954 770.467 361.212 772.162 363.233C772.51 363.728 773.119 363.952 773.641 363.952C774.771 363.952 775.684 363.009 775.684 361.886C775.684 361.346 775.511 360.852 775.163 360.448C772.945 357.887 769.771 356 765.249 356Z" fill="#6D78FF"/>
<path d="M800.717 375.588C800.717 369.343 796.673 364.222 790.108 364.222C783.586 364.222 779.542 369.343 779.542 375.588C779.542 381.833 783.586 387 790.108 387C796.673 387 800.717 381.833 800.717 375.588ZM796.673 375.588C796.673 379.767 794.325 383.451 790.108 383.451C785.933 383.451 783.542 379.767 783.542 375.588C783.542 371.455 785.933 367.771 790.108 367.771C794.325 367.771 796.673 371.455 796.673 375.588Z" fill="#6D78FF"/>
<path d="M816.772 366.243C816.772 365.21 816.033 364.446 815.033 364.446C812.685 364.446 810.772 366.468 809.598 368.13V366.423C809.598 365.39 808.728 364.491 807.728 364.491C806.598 364.491 805.728 365.39 805.728 366.423V384.754C805.728 385.832 806.554 386.686 807.598 386.73H807.641C808.728 386.73 809.598 385.832 809.598 384.754V371.365C810.859 369.433 812.815 368.535 814.816 368.355C815.903 368.265 816.772 367.412 816.772 366.243Z" fill="#6D78FF"/>
<path d="M831.464 366.243C831.464 365.21 830.725 364.446 829.725 364.446C827.377 364.446 825.464 366.468 824.29 368.13V366.423C824.29 365.39 823.42 364.491 822.42 364.491C821.29 364.491 820.42 365.39 820.42 366.423V384.754C820.42 385.832 821.246 386.686 822.29 386.73H822.333C823.42 386.73 824.29 385.832 824.29 384.754V371.365C825.551 369.433 827.507 368.535 829.507 368.355C830.594 368.265 831.464 367.412 831.464 366.243Z" fill="#6D78FF"/>
<path d="M704.561 422.208C704.561 419.566 702.345 417.755 700.277 417.755H671.841C669.699 417.755 668 419.491 668 421.604C668 423.943 669.699 425.679 671.841 425.679H693.925L677.823 462.358C677.602 462.962 677.454 463.566 677.454 464.094C677.454 466.358 679.301 468.547 681.886 468.547C683.658 468.547 685.357 467.491 686.022 465.83L704.192 423.943C704.413 423.415 704.561 422.811 704.561 422.208Z" fill="#6D78FF"/>
<path d="M747.193 452.849C747.193 450.585 745.495 448.849 743.426 448.849H740.177V423.038C740.177 419.113 736.557 416.849 732.643 417.302C730.058 417.302 727.399 418.736 725.995 420.925L708.269 448.925C707.752 449.83 707.456 450.811 707.456 451.868C707.456 454.736 709.525 456.774 711.962 456.774H731.387V464.094C731.387 466.509 733.381 468.547 735.745 468.547C738.256 468.547 740.177 466.509 740.177 464.094V456.774H743.426C745.495 456.774 747.193 455.038 747.193 452.849ZM731.387 448.849H716.541L731.387 425.83V448.849Z" fill="#6D78FF"/>
<path d="M775.41 429.604C775.41 422.509 770.535 417 763.076 417C755.763 417 750.889 422.509 750.889 429.604C750.889 436.623 755.763 441.981 763.076 441.981C770.535 441.981 775.41 436.623 775.41 429.604ZM793.137 420.547C793.284 420.245 793.432 419.868 793.432 419.491C793.432 418.358 792.398 417.302 791.29 417.302C790.626 417.302 789.961 417.679 789.518 418.208L760.121 465.302C759.9 465.679 759.826 466.057 759.826 466.434C759.826 467.642 760.786 468.547 761.968 468.547C762.632 468.547 763.297 468.245 763.666 467.642L793.137 420.547ZM802 456.623C802 449.528 796.977 444.019 789.665 444.019C782.353 444.019 777.478 449.528 777.478 456.623C777.478 463.642 782.353 469 789.665 469C796.977 469 802 463.642 802 456.623ZM756.65 429.604C756.65 425.075 759.383 422.132 763.076 422.132C766.916 422.132 769.575 425.075 769.575 429.604C769.575 433.83 766.916 436.925 763.076 436.925C759.383 436.925 756.65 433.83 756.65 429.604ZM783.239 456.623C783.239 452.17 785.898 449.151 789.665 449.151C793.506 449.151 796.239 452.17 796.239 456.623C796.239 460.925 793.506 463.943 789.665 463.943C785.898 463.943 783.239 460.925 783.239 456.623Z" fill="#6D78FF"/>
<path fill-rule="evenodd" clip-rule="evenodd" d="M686.583 324.112L675.159 331.323V324.112H671.405C669.332 324.112 667.651 322.415 667.651 320.321V297.576C667.651 295.482 669.332 293.785 671.405 293.785H701.435C703.509 293.785 705.189 295.482 705.189 297.576V320.321C705.189 322.415 703.509 324.112 701.435 324.112H686.583ZM678.912 324.484L685.506 320.322H701.435V297.576H671.405V320.322H678.912V324.484ZM692.6 301.922L684.543 310.059L680.239 305.713L677.585 308.393L684.543 315.42L695.255 304.602L692.6 301.922Z" fill="#A6ACFF"/>
<g filter="url(#filter2_dd)">
<path d="M337.312 282.182C337.312 269.931 347.254 260 359.517 260H576.626C588.889 260 598.83 269.931 598.83 282.182V481.818C598.83 494.069 588.889 504 576.626 504H359.517C347.254 504 337.312 494.069 337.312 481.818V282.182Z" fill="#FEFEFE"/>
</g>
<path d="M410.973 356.426C410.973 355.213 410.007 354.18 408.646 354.18C407.592 354.18 406.626 354.899 406.406 355.932L400.654 378.575L394.638 355.887C394.375 354.899 393.496 354.225 392.53 354.225C391.476 354.225 390.598 354.899 390.379 355.887L384.319 378.575L378.567 355.932C378.303 354.854 377.293 354.135 376.283 354.135C374.878 354.135 374 355.258 374 356.426C374 356.651 374.044 356.83 374.088 357.055L381.201 382.574C381.509 383.832 382.606 384.73 383.968 384.73H384.056C385.373 384.73 386.515 383.832 386.866 382.529L392.486 361.278L398.063 382.529C398.37 383.787 399.512 384.73 400.829 384.73H400.917C402.235 384.73 403.42 383.832 403.771 382.529L410.885 357.055C410.929 356.875 410.973 356.651 410.973 356.426Z" fill="#6D78FF"/>
<path d="M428.452 354C419.934 354 413.215 360.29 413.215 369.5C413.215 378.71 419.934 385 428.452 385C433.019 385 436.181 383.068 438.464 380.552C438.815 380.193 438.991 379.699 438.991 379.159C438.991 378.081 438.113 377.093 436.971 377.093C436.4 377.093 435.785 377.362 435.434 377.812C433.634 379.878 431.043 381.046 428.452 381.046C422.305 381.046 417.738 376.194 417.738 369.5C417.738 362.761 422.305 357.954 428.452 357.954C430.999 357.954 433.722 359.212 435.434 361.233C435.785 361.728 436.4 361.952 436.927 361.952C438.069 361.952 438.991 361.009 438.991 359.886C438.991 359.346 438.815 358.852 438.464 358.448C436.225 355.887 433.019 354 428.452 354Z" fill="#6D78FF"/>
<path d="M465.939 363.704C465.939 358.717 462.602 354.494 456.586 354.494H447.146C445.565 354.494 444.291 355.797 444.291 357.414V382.529C444.291 383.742 445.257 384.73 446.443 384.73C447.673 384.73 448.639 383.742 448.639 382.529V372.914H456.586C462.514 372.914 465.939 368.691 465.939 363.704ZM461.46 363.704C461.46 366.804 459.221 368.961 456.016 368.961H448.639V358.448H456.016C459.221 358.448 461.46 360.559 461.46 363.704Z" fill="#6D78FF"/>
<path d="M500 382.529V357.504C500 355.528 498.2 354.225 496.224 354.314C494.819 354.314 493.501 355.168 492.974 356.516L485.202 375.835L477.474 356.516C476.859 354.943 475.278 354.225 473.654 354.314C471.897 354.314 470.492 355.797 470.492 357.504V382.529C470.492 383.742 471.458 384.73 472.644 384.73C473.873 384.73 474.839 383.742 474.839 382.529V360.784L484.104 384.012C484.28 384.416 484.719 384.73 485.158 384.73C485.729 384.73 486.124 384.416 486.3 384.012L495.609 360.784V382.529C495.609 383.742 496.575 384.73 497.804 384.73C499.034 384.73 500 383.742 500 382.529Z" fill="#6D78FF"/>
<path d="M414.857 421.518C414.857 418.838 412.562 417 410.421 417H380.977C378.759 417 377 418.761 377 420.906C377 423.28 378.759 425.041 380.977 425.041H403.844L387.172 462.261C386.942 462.873 386.789 463.486 386.789 464.022C386.789 466.32 388.701 468.54 391.378 468.54C393.213 468.54 394.972 467.468 395.661 465.784L414.474 423.28C414.704 422.744 414.857 422.131 414.857 421.518Z" fill="#6D78FF"/>
<path d="M459 451.616C459 441.2 451.276 435.15 442.634 435.15C437.816 435.15 433.609 437.141 431.162 439.592V425.041H452.117C454.258 425.041 456.017 423.28 456.017 421.059C456.017 418.761 454.258 417 452.117 417H427.568C424.508 417 422.061 419.527 422.061 422.514V442.809C422.061 445.336 423.897 447.174 426.65 447.174C427.95 447.174 429.25 446.791 430.244 446.025C433.074 443.957 436.21 443.115 439.575 443.115C445.846 443.115 449.746 446.638 449.746 451.999C449.746 456.9 445.769 460.882 439.345 460.882C435.062 460.882 431.391 459.657 428.332 457.206C427.491 456.67 426.65 456.44 425.809 456.44C423.514 456.44 421.526 458.355 421.526 460.576C421.526 461.342 421.755 462.108 422.214 462.72C425.197 466.779 432.462 469 439.422 469C450.97 469 459 462.337 459 451.616Z" fill="#6D78FF"/>
<path fill-rule="evenodd" clip-rule="evenodd" d="M377.233 291.282L379.712 293.76L373.577 299.894L371.098 297.416L377.233 291.282ZM402.501 291.282L400.022 293.76L406.157 299.894L408.636 297.416L402.501 291.282ZM389.867 327.569C380.185 327.569 372.337 319.724 372.337 310.045C372.337 300.367 380.185 292.521 389.867 292.521C399.548 292.521 407.396 300.367 407.396 310.045C407.396 319.724 399.548 327.569 389.867 327.569ZM389.867 324.064C397.612 324.064 403.89 317.788 403.89 310.045C403.89 302.303 397.612 296.026 389.867 296.026C382.122 296.026 375.843 302.303 375.843 310.045C375.843 317.788 382.122 324.064 389.867 324.064ZM395.639 303.549L388.114 311.072L384.095 307.054L381.615 309.532L388.114 316.028L398.118 306.027L395.639 303.549Z" fill="#A6ACFF"/>
<g filter="url(#filter3_dd)">
<path d="M32 282.182C32 269.931 41.9399 260 54.2013 260H268.814C281.075 260 291.015 269.931 291.015 282.182V481.818C291.015 494.069 281.075 504 268.814 504H54.2013C41.9399 504 32 494.069 32 481.818V282.182Z" fill="#FEFEFE"/>
</g>
<path d="M86.1428 382.654C86.1428 382.399 86.0999 382.143 85.9711 381.845L76.4841 358.258C75.9261 356.853 74.5095 355.959 73.007 356.001C71.5046 356.001 70.1309 356.896 69.6158 358.258L60.1288 381.845C60.0429 382.143 60 382.399 60 382.654C60 383.804 60.9444 384.911 62.2752 384.911C63.1766 384.911 63.9923 384.4 64.3357 383.548L66.2245 378.737H79.9183L81.8071 383.548C82.1506 384.4 82.9662 384.911 83.8677 384.911C85.2413 384.911 86.1428 383.718 86.1428 382.654ZM78.7164 375.033H67.4265L73.0499 360.557L78.7164 375.033Z" fill="#6D78FF"/>
<path d="M106.964 381.547C106.964 380.568 106.063 379.887 105.161 379.887C104.732 379.887 104.303 380.014 103.959 380.27C102.8 381.292 101.47 381.803 99.9242 381.803C95.8032 381.803 93.1417 378.652 93.1417 374.352C93.1417 370.052 95.8032 366.943 99.9242 366.943C101.427 366.943 102.8 367.412 103.959 368.434C104.303 368.732 104.732 368.902 105.161 368.902C106.106 368.902 106.921 368.136 106.921 367.199C106.921 366.858 106.836 366.56 106.621 366.305C105.204 364.687 102.886 363.58 99.7096 363.58C93.4851 363.58 89.1923 368.221 89.1923 374.352C89.1923 380.525 93.4851 385.166 99.7096 385.166C102.8 385.166 104.904 384.144 106.449 382.654C106.793 382.356 106.964 381.93 106.964 381.547Z" fill="#6D78FF"/>
<path d="M128.26 381.547C128.26 380.568 127.359 379.887 126.457 379.887C126.028 379.887 125.599 380.014 125.255 380.27C124.096 381.292 122.766 381.803 121.22 381.803C117.099 381.803 114.438 378.652 114.438 374.352C114.438 370.052 117.099 366.943 121.22 366.943C122.723 366.943 124.096 367.412 125.255 368.434C125.599 368.732 126.028 368.902 126.457 368.902C127.402 368.902 128.217 368.136 128.217 367.199C128.217 366.858 128.132 366.56 127.917 366.305C126.5 364.687 124.182 363.58 121.006 363.58C114.781 363.58 110.488 368.221 110.488 374.352C110.488 380.525 114.781 385.166 121.006 385.166C124.096 385.166 126.2 384.144 127.745 382.654C128.089 382.356 128.26 381.93 128.26 381.547Z" fill="#6D78FF"/>
<path d="M150.844 383.037V365.666C150.844 364.687 149.986 363.835 148.998 363.835C147.882 363.835 147.024 364.687 147.024 365.666V378.865C145.865 380.44 143.675 381.803 141.271 381.803C138.61 381.803 136.85 380.738 136.85 377.332V365.666C136.85 364.687 135.991 363.835 135.004 363.835C133.888 363.835 133.029 364.687 133.029 365.666V378.652C133.029 382.995 135.262 385.166 139.64 385.166C142.817 385.166 145.478 383.591 147.024 381.845V383.037C147.024 384.059 147.882 384.911 148.912 384.911C149.986 384.911 150.844 384.059 150.844 383.037Z" fill="#6D78FF"/>
<path d="M167.912 365.496C167.912 364.517 167.182 363.793 166.195 363.793C163.877 363.793 161.988 365.709 160.829 367.284V365.666C160.829 364.687 159.97 363.835 158.983 363.835C157.867 363.835 157.008 364.687 157.008 365.666V383.037C157.008 384.059 157.824 384.868 158.854 384.911H158.897C159.97 384.911 160.829 384.059 160.829 383.037V370.35C162.074 368.519 164.006 367.667 165.98 367.497C167.053 367.412 167.912 366.603 167.912 365.496Z" fill="#6D78FF"/>
<path d="M188.169 383.037V370.733C188.169 365.496 184.306 363.58 179.841 363.58C177.051 363.58 173.917 364.474 171.942 366.433C171.685 366.731 171.556 367.071 171.556 367.412C171.556 368.306 172.372 368.902 173.144 368.902C173.445 368.902 173.788 368.774 174.089 368.561C175.634 367.369 177.351 366.773 179.283 366.773C182.202 366.773 184.348 368.306 184.348 370.903V374.352C182.717 372.521 180.356 371.627 177.523 371.627C174.089 371.627 170.311 373.713 170.311 378.354C170.311 382.867 174.089 385.166 177.523 385.166C180.313 385.166 182.674 384.187 184.348 382.356V383.037C184.348 384.272 185.336 384.911 186.108 384.911H186.237C187.31 384.911 188.169 384.059 188.169 383.037ZM184.348 380.142C183.189 381.717 181.129 382.484 178.983 382.484C176.192 382.484 174.175 380.823 174.175 378.439C174.175 375.97 176.192 374.267 178.983 374.267C181.129 374.267 183.189 375.076 184.348 376.651V380.142Z" fill="#6D78FF"/>
<path d="M210.845 381.547C210.845 380.568 209.944 379.887 209.042 379.887C208.613 379.887 208.184 380.014 207.84 380.27C206.681 381.292 205.351 381.803 203.805 381.803C199.684 381.803 197.023 378.652 197.023 374.352C197.023 370.052 199.684 366.943 203.805 366.943C205.308 366.943 206.681 367.412 207.84 368.434C208.184 368.732 208.613 368.902 209.042 368.902C209.987 368.902 210.802 368.136 210.802 367.199C210.802 366.858 210.717 366.56 210.502 366.305C209.085 364.687 206.767 363.58 203.591 363.58C197.366 363.58 193.073 368.221 193.073 374.352C193.073 380.525 197.366 385.166 203.591 385.166C206.681 385.166 208.785 384.144 210.33 382.654C210.674 382.356 210.845 381.93 210.845 381.547Z" fill="#6D78FF"/>
<path d="M233 365.709C233 364.73 232.184 363.835 231.068 363.835C230.296 363.835 229.566 364.304 229.265 365.028L223.17 380.27L217.031 365.028C216.73 364.261 216.001 363.835 215.271 363.835C214.112 363.835 213.339 364.772 213.339 365.709C213.339 365.922 213.382 366.135 213.468 366.347L221.152 384.911L219.95 387.635C219.263 389.126 218.319 389.594 217.16 389.594C216.859 389.636 216.516 389.594 216.172 389.594C215.228 389.594 214.455 390.318 214.455 391.297C214.455 392.702 215.872 393 217.203 393C219.993 393 222.268 391.723 223.599 388.615L232.871 366.347C232.957 366.177 233 365.922 233 365.709Z" fill="#6D78FF"/>
<path d="M99.7034 442.925C99.7034 428.983 93.8572 417 79.2786 417C68.2523 417 61 424.536 61 433.957C61 444.658 68.6963 450.159 77.5766 450.159C83.3488 450.159 88.529 446.617 90.749 443.151C90.823 443.678 90.823 444.055 90.823 444.583C90.823 453.325 86.0129 460.936 77.8726 460.936C74.7645 460.936 72.4704 460.183 70.5463 458.826C69.9543 458.374 69.2143 458.223 68.4743 458.223C66.5502 458.223 64.4041 459.806 64.4041 462.142C64.4041 462.896 64.6261 463.574 65.0701 464.177C67.5122 467.417 72.8404 468.925 77.8726 468.925C92.1551 468.925 99.7034 457.545 99.7034 442.925ZM90.675 436.594C88.159 440.212 84.1628 442.397 80.0187 442.397C74.6165 442.397 69.9543 439.684 69.9543 433.655C69.9543 429.586 73.2844 424.988 79.7227 424.988C87.2709 424.988 90.157 431.243 90.675 436.594Z" fill="#6D78FF"/>
<path d="M142.742 464.026C142.742 461.916 140.966 460.183 138.894 460.183H120.615C133.788 450.084 142.002 441.87 142.002 432.6C142.002 422.577 133.64 417.075 123.946 417.075C117.803 417.075 110.551 419.562 107.517 423.481C107.073 424.159 106.851 424.913 106.851 425.591C106.851 427.928 108.701 429.661 110.773 429.661C111.661 429.661 112.475 429.359 113.289 428.757C116.175 426.42 119.801 425.064 124.094 425.064C128.608 425.064 132.974 427.475 132.974 432.6C132.974 439.533 125.648 446.241 107.665 460.032C106.481 460.936 105.889 462.293 105.889 463.725C105.889 466.287 107.887 468.096 109.959 468.096H138.894C140.966 468.096 142.742 466.362 142.742 464.026Z" fill="#6D78FF"/>
<path d="M173.359 429.661C173.359 422.577 168.475 417.075 161.001 417.075C153.674 417.075 148.79 422.577 148.79 429.661C148.79 436.67 153.674 442.02 161.001 442.02C168.475 442.02 173.359 436.67 173.359 429.661ZM191.12 420.617C191.268 420.316 191.416 419.939 191.416 419.562C191.416 418.432 190.38 417.377 189.27 417.377C188.604 417.377 187.938 417.754 187.494 418.281L158.041 465.307C157.819 465.684 157.745 466.061 157.745 466.438C157.745 467.643 158.707 468.548 159.891 468.548C160.557 468.548 161.223 468.246 161.593 467.643L191.12 420.617ZM200 456.641C200 449.557 194.968 444.055 187.642 444.055C180.315 444.055 175.431 449.557 175.431 456.641C175.431 463.649 180.315 469 187.642 469C194.968 469 200 463.649 200 456.641ZM154.562 429.661C154.562 425.139 157.301 422.2 161.001 422.2C164.849 422.2 167.513 425.139 167.513 429.661C167.513 433.881 164.849 436.971 161.001 436.971C157.301 436.971 154.562 433.881 154.562 429.661ZM181.203 456.641C181.203 452.194 183.867 449.18 187.642 449.18C191.49 449.18 194.228 452.194 194.228 456.641C194.228 460.936 191.49 463.951 187.642 463.951C183.867 463.951 181.203 460.936 181.203 456.641Z" fill="#6D78FF"/>
<path fill-rule="evenodd" clip-rule="evenodd" d="M65.654 311.189H62.0308V307.662H65.654C66.467 300.307 72.3072 294.467 79.6625 293.654V290.031H83.1888V293.654C90.5441 294.467 96.3842 300.307 97.1973 307.662H100.821V311.189H97.1973C96.3842 318.544 90.5441 324.384 83.1888 325.197V328.821H79.6625V325.197C72.3072 324.384 66.467 318.544 65.654 311.189ZM81.4256 297.083C74.6092 297.083 69.0834 302.609 69.0834 309.425C69.0834 316.242 74.6092 321.768 81.4256 321.768C88.242 321.768 93.7678 316.242 93.7678 309.425C93.7678 302.609 88.242 297.083 81.4256 297.083ZM88.4782 309.425C88.4782 305.53 85.3206 302.373 81.4256 302.373C77.5305 302.373 74.3729 305.53 74.3729 309.425C74.3729 313.32 77.5305 316.478 81.4256 316.478C85.3206 316.478 88.4782 313.32 88.4782 309.425Z" fill="#B2B8FF"/>
</g>
<defs>
<filter id="filter0_d" x="25" y="260" width="878.636" height="261" filterUnits="userSpaceOnUse" color-interpolation-filters="sRGB">
<feFlood flood-opacity="0" result="BackgroundImageFix"/>
<feColorMatrix in="SourceAlpha" type="matrix" values="0 0 0 0 0 0 0 0 0 0 0 0 0 0 0 0 0 0 127 0"/>
<feOffset dy="10"/>
<feGaussianBlur stdDeviation="3.5"/>
<feColorMatrix type="matrix" values="0 0 0 0 0.345833 0 0 0 0 0.392865 0 0 0 0 1 0 0 0 0.08 0"/>
<feBlend mode="normal" in2="BackgroundImageFix" result="effect1_dropShadow"/>
<feBlend mode="normal" in="SourceGraphic" in2="effect1_dropShadow" result="shape"/>
</filter>
<filter id="filter1_dd" x="628.37" y="255" width="276.267" height="260" filterUnits="userSpaceOnUse" color-interpolation-filters="sRGB">
<feFlood flood-opacity="0" result="BackgroundImageFix"/>
<feColorMatrix in="SourceAlpha" type="matrix" values="0 0 0 0 0 0 0 0 0 0 0 0 0 0 0 0 0 0 127 0"/>
<feOffset dy="3"/>
<feGaussianBlur stdDeviation="4"/>
<feColorMatrix type="matrix" values="0 0 0 0 0.204167 0 0 0 0 0.202465 0 0 0 0 0.202465 0 0 0 0.08 0"/>
<feBlend mode="normal" in2="BackgroundImageFix" result="effect1_dropShadow"/>
<feColorMatrix in="SourceAlpha" type="matrix" values="0 0 0 0 0 0 0 0 0 0 0 0 0 0 0 0 0 0 127 0"/>
<feOffset dy="-1"/>
<feGaussianBlur stdDeviation="1.5"/>
<feColorMatrix type="matrix" values="0 0 0 0 0.203922 0 0 0 0 0.203922 0 0 0 0 0.203922 0 0 0 0.04 0"/>
<feBlend mode="normal" in2="effect1_dropShadow" result="effect2_dropShadow"/>
<feBlend mode="normal" in="SourceGraphic" in2="effect2_dropShadow" result="shape"/>
</filter>
<filter id="filter2_dd" x="329.312" y="255" width="277.518" height="260" filterUnits="userSpaceOnUse" color-interpolation-filters="sRGB">
<feFlood flood-opacity="0" result="BackgroundImageFix"/>
<feColorMatrix in="SourceAlpha" type="matrix" values="0 0 0 0 0 0 0 0 0 0 0 0 0 0 0 0 0 0 127 0"/>
<feOffset dy="3"/>
<feGaussianBlur stdDeviation="4"/>
<feColorMatrix type="matrix" values="0 0 0 0 0.204167 0 0 0 0 0.202465 0 0 0 0 0.202465 0 0 0 0.08 0"/>
<feBlend mode="normal" in2="BackgroundImageFix" result="effect1_dropShadow"/>
<feColorMatrix in="SourceAlpha" type="matrix" values="0 0 0 0 0 0 0 0 0 0 0 0 0 0 0 0 0 0 127 0"/>
<feOffset dy="-1"/>
<feGaussianBlur stdDeviation="1.5"/>
<feColorMatrix type="matrix" values="0 0 0 0 0.203922 0 0 0 0 0.203922 0 0 0 0 0.203922 0 0 0 0.04 0"/>
<feBlend mode="normal" in2="effect1_dropShadow" result="effect2_dropShadow"/>
<feBlend mode="normal" in="SourceGraphic" in2="effect2_dropShadow" result="shape"/>
</filter>
<filter id="filter3_dd" x="24" y="255" width="275.015" height="260" filterUnits="userSpaceOnUse" color-interpolation-filters="sRGB">
<feFlood flood-opacity="0" result="BackgroundImageFix"/>
<feColorMatrix in="SourceAlpha" type="matrix" values="0 0 0 0 0 0 0 0 0 0 0 0 0 0 0 0 0 0 127 0"/>
<feOffset dy="3"/>
<feGaussianBlur stdDeviation="4"/>
<feColorMatrix type="matrix" values="0 0 0 0 0.204167 0 0 0 0 0.202465 0 0 0 0 0.202465 0 0 0 0.08 0"/>
<feBlend mode="normal" in2="BackgroundImageFix" result="effect1_dropShadow"/>
<feColorMatrix in="SourceAlpha" type="matrix" values="0 0 0 0 0 0 0 0 0 0 0 0 0 0 0 0 0 0 127 0"/>
<feOffset dy="-1"/>
<feGaussianBlur stdDeviation="1.5"/>
<feColorMatrix type="matrix" values="0 0 0 0 0.203922 0 0 0 0 0.203922 0 0 0 0 0.203922 0 0 0 0.04 0"/>
<feBlend mode="normal" in2="effect1_dropShadow" result="effect2_dropShadow"/>
<feBlend mode="normal" in="SourceGraphic" in2="effect2_dropShadow" result="shape"/>
</filter>
</defs>
</svg>
