<svg width="942" height="776" viewBox="0 0 942 776" fill="none" xmlns="http://www.w3.org/2000/svg">
<rect width="942" height="776" fill="white"/>
<circle cx="475.5" cy="368.5" r="334.5" transform="rotate(-90 475.5 368.5)" fill="#54DE9C" fill-opacity="0.19"/>
<path fill-rule="evenodd" clip-rule="evenodd" d="M220.87 639.44C220.099 643.657 216.055 646.451 211.838 645.68C207.62 644.909 204.826 640.865 205.597 636.648C206.368 632.431 210.412 629.637 214.629 630.408C218.847 631.179 221.641 635.222 220.87 639.44ZM228.506 640.836C226.964 649.27 218.876 654.858 210.442 653.316C202.007 651.774 196.419 643.687 197.961 635.252C199.503 626.817 207.591 621.229 216.025 622.771C224.46 624.313 230.048 632.401 228.506 640.836Z" fill="#3FD48D" fill-opacity="0.61"/>
<path fill-rule="evenodd" clip-rule="evenodd" d="M310.366 541.453L320.137 554.64L304.866 555.868L310.366 541.453ZM315.197 534.934C312.155 530.828 305.777 531.705 303.956 536.479L296.883 555.016C295.187 559.46 298.705 564.152 303.445 563.771L323.083 562.19C328.145 561.783 330.785 555.97 327.762 551.891L315.197 534.934Z" fill="#3FD48D" fill-opacity="0.61"/>
<path fill-rule="evenodd" clip-rule="evenodd" d="M148.641 516.598L158.412 529.784L143.141 531.013L148.641 516.598ZM153.472 510.078C150.429 505.972 144.052 506.849 142.23 511.623L135.157 530.161C133.462 534.604 136.979 539.297 141.72 538.915L161.358 537.335C166.419 536.928 169.059 531.115 166.037 527.035L153.472 510.078Z" fill="#3FD48D" fill-opacity="0.61"/>
<path d="M330.085 638.61C332.81 638.938 335.277 640.704 336.37 643.432C337.463 646.16 336.898 649.141 335.153 651.26C333.79 652.915 332.697 655.138 333.494 657.128C334.291 659.118 336.594 660.121 338.326 658.857C343.925 654.773 346.271 647.274 343.576 640.545C340.88 633.817 334.005 630.012 327.135 630.923C325.009 631.205 324.036 633.52 324.833 635.51C325.631 637.5 327.957 638.354 330.085 638.61Z" fill="#3FD48D" fill-opacity="0.61"/>
<path fill-rule="evenodd" clip-rule="evenodd" d="M236.893 566.686C234.447 568.164 231.265 567.38 229.787 564.933L215.562 541.391C214.084 538.945 214.869 535.763 217.315 534.285C219.761 532.807 222.942 533.592 224.421 536.038L238.646 559.581C240.124 562.027 239.339 565.208 236.893 566.686Z" fill="#3FD48D" fill-opacity="0.61"/>
<path fill-rule="evenodd" clip-rule="evenodd" d="M181.984 432.093L176.029 414.568L192.852 418.504L181.984 432.093ZM174.553 437.432C176.407 442.888 183.558 444.141 187.157 439.641L201.133 422.166C204.483 417.978 202.32 411.728 197.098 410.506L175.463 405.445C169.888 404.141 165.052 409.475 166.894 414.896L174.553 437.432Z" fill="#3FD48D" fill-opacity="0.61"/>
<path fill-rule="evenodd" clip-rule="evenodd" d="M110.015 382.203C114.666 383.523 117.367 388.364 116.046 393.015C114.726 397.666 109.885 400.367 105.234 399.046C100.583 397.726 97.8826 392.885 99.2029 388.234C100.523 383.583 105.364 380.883 110.015 382.203ZM112.406 373.781C121.708 376.422 127.109 386.103 124.468 395.406C121.828 404.708 112.146 410.109 102.843 407.468C93.5411 404.828 88.1406 395.146 90.7812 385.844C93.4217 376.541 103.103 371.141 112.406 373.781Z" fill="#3FD48D" fill-opacity="0.61"/>
<path fill-rule="evenodd" clip-rule="evenodd" d="M275.834 707.981C279.055 708.084 281.751 705.556 281.853 702.334L282.844 671.329C282.947 668.108 280.418 665.413 277.197 665.31C273.975 665.207 271.28 667.735 271.177 670.957L270.187 701.961C270.084 705.183 272.612 707.878 275.834 707.981Z" fill="#3FD48D" fill-opacity="0.61"/>
<path d="M263.565 429.561C267.009 429.61 270.32 431.487 272.045 434.746C273.77 438.005 273.46 441.799 271.563 444.674C270.082 446.919 269.013 449.838 270.271 452.215C271.529 454.592 274.535 455.538 276.528 453.733C282.973 447.895 284.908 438.228 280.653 430.19C276.399 422.152 267.317 418.316 258.866 420.362C256.252 420.994 255.344 424.012 256.602 426.39C257.861 428.767 260.876 429.524 263.565 429.561Z" fill="#3FD48D" fill-opacity="0.61"/>
<path fill-rule="evenodd" clip-rule="evenodd" d="M712.095 217.861C711.863 222.142 708.205 225.425 703.924 225.193C699.643 224.961 696.36 221.302 696.592 217.021C696.824 212.74 700.483 209.458 704.763 209.69C709.044 209.922 712.327 213.58 712.095 217.861ZM719.846 218.281C719.382 226.843 712.066 233.408 703.504 232.944C694.942 232.48 688.377 225.163 688.841 216.601C689.305 208.039 696.621 201.475 705.183 201.939C713.745 202.402 720.31 209.719 719.846 218.281Z" fill="#3FD48D" fill-opacity="0.61"/>
<path fill-rule="evenodd" clip-rule="evenodd" d="M698.365 114.745L709.724 126.592L694.73 129.74L698.365 114.745ZM702.334 107.668C698.797 103.979 692.581 105.655 691.377 110.621L686.703 129.904C685.583 134.526 689.665 138.736 694.319 137.759L713.6 133.71C718.569 132.666 720.454 126.567 716.94 122.902L702.334 107.668Z" fill="#3FD48D" fill-opacity="0.61"/>
<path d="M790.428 196.069C793.173 196.05 795.843 197.491 797.272 200.059C798.701 202.627 798.517 205.655 797.054 207.978C795.911 209.791 795.108 212.135 796.15 214.008C797.192 215.882 799.603 216.586 801.161 215.113C806.199 210.354 807.58 202.619 804.055 196.285C800.531 189.951 793.23 187.046 786.53 188.817C784.458 189.365 783.785 191.785 784.827 193.658C785.869 195.531 788.284 196.084 790.428 196.069Z" fill="#3FD48D" fill-opacity="0.61"/>
<path fill-rule="evenodd" clip-rule="evenodd" d="M776.616 126.608C774.376 128.383 771.121 128.007 769.346 125.767L752.26 104.211C750.485 101.971 750.861 98.7156 753.101 96.9402C755.341 95.1649 758.596 95.5415 760.372 97.7814L777.457 119.338C779.233 121.578 778.856 124.833 776.616 126.608Z" fill="#3FD48D" fill-opacity="0.61"/>
<path fill-rule="evenodd" clip-rule="evenodd" d="M775.279 278.909C778.488 278.604 780.842 275.755 780.537 272.546L777.602 241.665C777.297 238.456 774.448 236.102 771.24 236.407C768.031 236.712 765.677 239.561 765.982 242.77L768.917 273.651C769.221 276.86 772.07 279.214 775.279 278.909Z" fill="#3FD48D" fill-opacity="0.61"/>
<path d="M628.111 72.4631C631.534 72.0761 635.056 73.5201 637.179 76.5347C639.301 79.5494 639.473 83.3522 637.955 86.4436C636.77 88.8578 636.077 91.8884 637.626 94.0876C639.174 96.2867 642.276 96.8458 644.025 94.8027C649.68 88.1973 650.378 78.3635 645.142 70.9275C639.907 63.4914 630.413 60.8335 622.288 63.9307C619.775 64.8887 619.256 67.9973 620.804 70.1964C622.352 72.3955 625.439 72.7653 628.111 72.4631Z" fill="#3FD48D" fill-opacity="0.61"/>
<path d="M653.806 148.871V582C653.806 586.418 650.225 590 645.806 590H304C291.85 590 282 580.15 282 568V148.871C282 144.452 285.582 140.871 290 140.871H645.806C650.225 140.871 653.806 144.452 653.806 148.871Z" fill="#3CB179"/>
<path d="M642.29 529.129V580.129H313.871C301.721 580.129 291.871 570.279 291.871 558.129V551.129C291.871 538.979 301.721 529.129 313.871 529.129H642.29Z" fill="#DFF9EC"/>
<path d="M282 139C282 134.582 285.582 131 290 131H639.226C643.644 131 647.226 134.582 647.226 139V529.129H314.903C314.903 529.129 304.21 530.774 297.629 539C291.048 547.226 282 558.742 282 558.742V529.129V139Z" fill="#40D78F"/>
<path d="M329.71 553.807H629.129" stroke="#40D78F" stroke-width="2"/>
<path d="M318.193 542.29H617.613" stroke="#40D78F" stroke-width="2"/>
<path d="M314.903 566.968H614.323" stroke="#40D78F" stroke-width="2"/>
<path d="M437.117 297.224L468.02 246.037C468.841 244.676 470.845 244.771 471.534 246.204L496.002 297.064C496.287 297.655 496.843 298.069 497.49 298.172L552.72 306.957C554.361 307.218 554.986 309.249 553.777 310.388L511.696 350.02C511.214 350.474 510.988 351.139 511.093 351.793L519.845 406.171C520.122 407.892 518.218 409.119 516.765 408.156L470.987 377.816C470.342 377.389 469.509 377.372 468.847 377.772L418.165 408.441C416.707 409.323 414.884 408.094 415.155 406.412L423.951 351.76C424.054 351.124 423.843 350.477 423.387 350.023L383.459 310.331C382.307 309.185 382.93 307.216 384.532 306.941L435.743 298.162C436.315 298.064 436.817 297.722 437.117 297.224Z" fill="#BEFFE0"/>
<path d="M513.968 283.079C516.999 277.137 524.16 265.598 528.551 266.988C532.943 268.378 520.659 278.295 513.968 283.079Z" fill="white"/>
<path d="M530.609 353.097C537.168 354.314 550.266 357.9 550.182 362.506C550.097 367.112 537.098 358.152 530.609 353.097Z" fill="white"/>
<path d="M420.839 283.093C415.689 278.852 405.963 269.375 408.266 265.386C410.57 261.396 417.608 275.528 420.839 283.093Z" fill="white"/>
<path d="M405.535 354.17C400.822 358.891 390.457 367.666 386.707 364.992C382.956 362.318 397.696 356.663 405.535 354.17Z" fill="white"/>
</svg>
